<svg id="Layer_1" data-name="Layer 1" xmlns="http://www.w3.org/2000/svg" viewBox="0 0 500 375"><defs><style>.cls-1,.cls-7,.cls-9{fill:#010101;}.cls-1{fill-opacity:0;}.cls-2{fill:#4281c3;}.cls-10,.cls-3,.cls-6,.cls-8{fill:none;stroke-linejoin:round;}.cls-3,.cls-6,.cls-7,.cls-8{stroke:#010101;}.cls-10,.cls-11,.cls-3{stroke-width:2px;}.cls-4{fill:#d9d9d8;}.cls-11,.cls-5{fill:#f15722;}.cls-11,.cls-7{stroke-miterlimit:10;}.cls-8{stroke-dasharray:8 3;}.cls-10,.cls-11{stroke:#f15722;}</style></defs><title>microservice_graph</title><path class="cls-1" d="M46.9,233.9h500v375H46.9v-375Z" transform="translate(-46.9 -233.9)"/><path class="cls-2" d="M280,343.5h0A17.46,17.46,0,0,1,297.5,326h0A17.41,17.41,0,0,1,315,343.5h0A17.46,17.46,0,0,1,297.5,361h0A17.46,17.46,0,0,1,280,343.5Z" transform="translate(-46.9 -233.9)"/><path class="cls-3" d="M280,343.5h0A17.46,17.46,0,0,1,297.5,326h0A17.41,17.41,0,0,1,315,343.5h0A17.46,17.46,0,0,1,297.5,361h0A17.46,17.46,0,0,1,280,343.5Z" transform="translate(-46.9 -233.9)"/><path class="cls-4" d="M235,423.5h0A17.46,17.46,0,0,1,252.5,406h0A17.41,17.41,0,0,1,270,423.5h0A17.46,17.46,0,0,1,252.5,441h0A17.46,17.46,0,0,1,235,423.5Z" transform="translate(-46.9 -233.9)"/><path class="cls-3" d="M235,423.5h0A17.46,17.46,0,0,1,252.5,406h0A17.41,17.41,0,0,1,270,423.5h0A17.46,17.46,0,0,1,252.5,441h0A17.46,17.46,0,0,1,235,423.5Z" transform="translate(-46.9 -233.9)"/><path class="cls-5" d="M192,512.5h0A17.46,17.46,0,0,1,209.5,495h0A17.41,17.41,0,0,1,227,512.5h0A17.46,17.46,0,0,1,209.5,530h0A17.46,17.46,0,0,1,192,512.5Z" transform="translate(-46.9 -233.9)"/><path class="cls-3" d="M192,512.5h0A17.46,17.46,0,0,1,209.5,495h0A17.41,17.41,0,0,1,227,512.5h0A17.46,17.46,0,0,1,209.5,530h0A17.46,17.46,0,0,1,192,512.5Z" transform="translate(-46.9 -233.9)"/><path class="cls-4" d="M330,423.5h0A17.46,17.46,0,0,1,347.5,406h0A17.41,17.41,0,0,1,365,423.5h0A17.46,17.46,0,0,1,347.5,441h0A17.46,17.46,0,0,1,330,423.5Z" transform="translate(-46.9 -233.9)"/><path class="cls-3" d="M330,423.5h0A17.46,17.46,0,0,1,347.5,406h0A17.41,17.41,0,0,1,365,423.5h0A17.46,17.46,0,0,1,347.5,441h0A17.46,17.46,0,0,1,330,423.5Z" transform="translate(-46.9 -233.9)"/><path class="cls-4" d="M280,512.5h0A17.46,17.46,0,0,1,297.5,495h0A17.41,17.41,0,0,1,315,512.5h0A17.46,17.46,0,0,1,297.5,530h0A17.46,17.46,0,0,1,280,512.5Z" transform="translate(-46.9 -233.9)"/><path class="cls-3" d="M280,512.5h0A17.46,17.46,0,0,1,297.5,495h0A17.41,17.41,0,0,1,315,512.5h0A17.46,17.46,0,0,1,297.5,530h0A17.46,17.46,0,0,1,280,512.5Z" transform="translate(-46.9 -233.9)"/><path class="cls-1" d="M309.9,355.9,347.5,406" transform="translate(-46.9 -233.9)"/><path class="cls-6" d="M309.9,355.9l34,45.3" transform="translate(-46.9 -233.9)"/><path class="cls-7" d="M342.6,402.2l4,2.6-1.4-4.6Z" transform="translate(-46.9 -233.9)"/><path class="cls-1" d="M285.1,355.9,252.5,406" transform="translate(-46.9 -233.9)"/><path class="cls-6" d="M285.1,355.9,255.8,401" transform="translate(-46.9 -233.9)"/><path class="cls-7" d="M254.4,400.1l-1.1,4.7,3.9-2.9Z" transform="translate(-46.9 -233.9)"/><path class="cls-1" d="M240.1,435.9,209.5,495" transform="translate(-46.9 -233.9)"/><path class="cls-6" d="M240.1,435.9l-27.9,53.8" transform="translate(-46.9 -233.9)"/><path class="cls-7" d="M210.8,488.9l-.6,4.8,3.6-3.3Z" transform="translate(-46.9 -233.9)"/><path class="cls-1" d="M264.9,435.9,297.5,495" transform="translate(-46.9 -233.9)"/><path class="cls-6" d="M264.9,435.9l29.7,53.9" transform="translate(-46.9 -233.9)"/><path class="cls-7" d="M293.2,490.5l3.6,3.2-.7-4.8Z" transform="translate(-46.9 -233.9)"/><path class="cls-1" d="M297.5,274v52" transform="translate(-46.9 -233.9)"/><path class="cls-8" d="M297.5,274v46" transform="translate(-46.9 -233.9)"/><path class="cls-7" d="M295.8,320l1.7,4.5,1.7-4.5Z" transform="translate(-46.9 -233.9)"/><path class="cls-1" d="M145.3,405h94.9v37H145.3V405Z" transform="translate(-46.9 -233.9)"/><path class="cls-9" d="M159.3,417.6a4.83,4.83,0,0,1,3.3,1,3.16,3.16,0,0,1,1.2,2.7h-2.4a1.49,1.49,0,0,0-.6-1.3,2.67,2.67,0,0,0-1.7-.4,2.13,2.13,0,0,0-1.2.3,1.1,1.1,0,0,0-.5,1,1.45,1.45,0,0,0,.2.7,1.91,1.91,0,0,0,.8.4c.4.1,1.3.4,2.8.7a4,4,0,0,1,2.2,1.2,2.86,2.86,0,0,1,.8,2.1,3.42,3.42,0,0,1-1.2,2.7,5.22,5.22,0,0,1-3.5,1,5.62,5.62,0,0,1-3.5-1.1,3.61,3.61,0,0,1-1.4-3v-.1H157a1.86,1.86,0,0,0,.7,1.6,3.45,3.45,0,0,0,1.8.5,2.54,2.54,0,0,0,1.6-.4,1.15,1.15,0,0,0,.6-1.1,1.05,1.05,0,0,0-.5-.9,5.71,5.71,0,0,0-1.5-.6q-1.35-.3-2.4-.6a4.18,4.18,0,0,1-1.8-1.1,2.49,2.49,0,0,1-.7-1.9,3.17,3.17,0,0,1,1.2-2.5A7.76,7.76,0,0,1,159.3,417.6Zm10,3.3a3.47,3.47,0,0,1,2.9,1.3,4.77,4.77,0,0,1,1.1,3.2v.4h-6a2.11,2.11,0,0,0,.6,1.6,1.84,1.84,0,0,0,1.5.5,2,2,0,0,0,1.1-.3,1.34,1.34,0,0,0,.7-.8h2a4.58,4.58,0,0,1-1.4,2.1,3.9,3.9,0,0,1-2.5.7,4.14,4.14,0,0,1-3.1-1.2,4.6,4.6,0,0,1,0-6.2A4.16,4.16,0,0,1,169.3,420.9Zm-1.9,3.4h3.7a2.26,2.26,0,0,0-.6-1.3,1.59,1.59,0,0,0-1.2-.4,1.73,1.73,0,0,0-1.3.5A1.43,1.43,0,0,0,167.4,424.3Zm12.1-3.4h.5V423h-.8a1.94,1.94,0,0,0-1.7.7,2.85,2.85,0,0,0-.5,1.9v3.8h-2.3v-8.3h2.2v1.5h0a2.76,2.76,0,0,1,1.1-1.3A2.6,2.6,0,0,1,179.5,420.9Zm3,.2,1.8,5.7h0l1.7-5.7h2.3l-2.8,8.3H183l-2.8-8.3Zm9.1-3.2v1.9h-2.3v-1.9Zm0,3.2v8.3h-2.3v-8.3Zm5.7-.2a4.55,4.55,0,0,1,2.7.8,3.26,3.26,0,0,1,1.2,2.3H199a1.88,1.88,0,0,0-.5-1.1,2.14,2.14,0,0,0-1.2-.4,1.42,1.42,0,0,0-1.4.8,3.86,3.86,0,0,0,0,3.8,1.51,1.51,0,0,0,1.4.7,1.59,1.59,0,0,0,1.2-.4,2.28,2.28,0,0,0,.6-1.2h2.2a3.61,3.61,0,0,1-1.3,2.5,4,4,0,0,1-2.7.9,4.07,4.07,0,0,1-3-1.2,4.14,4.14,0,0,1-1.2-3.1,4.77,4.77,0,0,1,1.1-3.2A4.14,4.14,0,0,1,197.3,420.9Zm9.1,0a3.47,3.47,0,0,1,2.9,1.3,4.77,4.77,0,0,1,1.1,3.2v.4h-6a2.11,2.11,0,0,0,.6,1.6,1.84,1.84,0,0,0,1.5.5,2,2,0,0,0,1.1-.3,1.34,1.34,0,0,0,.7-.8h2a4.58,4.58,0,0,1-1.4,2.1,3.9,3.9,0,0,1-2.5.7,4.14,4.14,0,0,1-3.1-1.2,4.6,4.6,0,0,1,0-6.2A3.87,3.87,0,0,1,206.4,420.9Zm-2,3.4h3.7a2.26,2.26,0,0,0-.6-1.3,1.59,1.59,0,0,0-1.2-.4,1.73,1.73,0,0,0-1.3.5A2.28,2.28,0,0,0,204.4,424.3Zm13-6.4a4.15,4.15,0,0,1,2.7.7,2.58,2.58,0,0,1,.9,2.1,2.41,2.41,0,0,1-.4,1.5,3.13,3.13,0,0,1-1.1.9,3.09,3.09,0,0,1,1.6,1.1,2.73,2.73,0,0,1,.5,1.8,3.1,3.1,0,0,1-1.1,2.5,4.47,4.47,0,0,1-2.8.9H212V418h5.4Zm-.3,4.7a2,2,0,0,0,1.1-.3,1.45,1.45,0,0,0,0-2,2.13,2.13,0,0,0-1.2-.3h-2.4v2.7h2.5Zm.1,4.8a1.7,1.7,0,0,0,1.3-.4,1.29,1.29,0,0,0,.5-1.1,1.66,1.66,0,0,0-.5-1.2,1.7,1.7,0,0,0-1.3-.4h-2.8v3.1Z" transform="translate(-46.9 -233.9)"/><path class="cls-1" d="M365,405h94.9v37H365Z" transform="translate(-46.9 -233.9)"/><path class="cls-9" d="M379,417.6a4.83,4.83,0,0,1,3.3,1,3.16,3.16,0,0,1,1.2,2.7h-2.4a1.49,1.49,0,0,0-.6-1.3,2.67,2.67,0,0,0-1.7-.4,2.13,2.13,0,0,0-1.2.3,1.1,1.1,0,0,0-.5,1,1.45,1.45,0,0,0,.2.7,1.91,1.91,0,0,0,.8.4c.4.1,1.3.4,2.8.7a4,4,0,0,1,2.2,1.2,2.86,2.86,0,0,1,.8,2.1,3.42,3.42,0,0,1-1.2,2.7,5.22,5.22,0,0,1-3.5,1,5.62,5.62,0,0,1-3.5-1.1,3.61,3.61,0,0,1-1.4-3v-.1h2.4a1.86,1.86,0,0,0,.7,1.6,3.45,3.45,0,0,0,1.8.5,2.54,2.54,0,0,0,1.6-.4,1.15,1.15,0,0,0,.6-1.1,1.05,1.05,0,0,0-.5-.9,5.71,5.71,0,0,0-1.5-.6q-1.35-.3-2.4-.6a4.18,4.18,0,0,1-1.8-1.1,2.49,2.49,0,0,1-.7-1.9,3.17,3.17,0,0,1,1.2-2.5A7.76,7.76,0,0,1,379,417.6Zm10.1,3.3a3.47,3.47,0,0,1,2.9,1.3,4.77,4.77,0,0,1,1.1,3.2v.4h-6a2.11,2.11,0,0,0,.6,1.6,2.07,2.07,0,0,0,1.5.5,2,2,0,0,0,1.1-.3,1.34,1.34,0,0,0,.7-.8h2a4.58,4.58,0,0,1-1.4,2.1,3.9,3.9,0,0,1-2.5.7,4.14,4.14,0,0,1-3.1-1.2,4.6,4.6,0,0,1,0-6.2A3.87,3.87,0,0,1,389.1,420.9Zm-2,3.4h3.7a2.26,2.26,0,0,0-.6-1.3,1.59,1.59,0,0,0-1.2-.4,1.89,1.89,0,0,0-1.9,1.7Zm12.1-3.4h.5V423h-.8a1.94,1.94,0,0,0-1.7.7,2.85,2.85,0,0,0-.5,1.9v3.8h-2.3v-8.3h2.2v1.5h0a2.76,2.76,0,0,1,1.1-1.3A2.82,2.82,0,0,1,399.2,420.9Zm3.1.2,1.8,5.7h0l1.7-5.7h2.3l-2.8,8.3h-2.5l-2.8-8.3Zm9-3.2v1.9H409v-1.9Zm0,3.2v8.3H409v-8.3Zm5.8-.2a4.55,4.55,0,0,1,2.7.8A3.26,3.26,0,0,1,421,424h-2.2a2.81,2.81,0,0,0-.5-1.1,2.14,2.14,0,0,0-1.2-.4,1.42,1.42,0,0,0-1.4.8,3.86,3.86,0,0,0,0,3.8,1.51,1.51,0,0,0,1.4.7,1.59,1.59,0,0,0,1.2-.4,2.28,2.28,0,0,0,.6-1.2h2.2a3.61,3.61,0,0,1-1.3,2.5,4,4,0,0,1-2.7.9,4.07,4.07,0,0,1-3-1.2,4.14,4.14,0,0,1-1.2-3.1,4.77,4.77,0,0,1,1.1-3.2A4.14,4.14,0,0,1,417.1,420.9Zm9,0a3.47,3.47,0,0,1,2.9,1.3,4.77,4.77,0,0,1,1.1,3.2v.4h-6a2.11,2.11,0,0,0,.6,1.6,2.07,2.07,0,0,0,1.5.5,2,2,0,0,0,1.1-.3,1.34,1.34,0,0,0,.7-.8h2a4.58,4.58,0,0,1-1.4,2.1,3.9,3.9,0,0,1-2.5.7,4.14,4.14,0,0,1-3.1-1.2,4.6,4.6,0,0,1,0-6.2A4.16,4.16,0,0,1,426.1,420.9Zm-1.9,3.4h3.7a2.26,2.26,0,0,0-.6-1.3,1.59,1.59,0,0,0-1.2-.4,1.73,1.73,0,0,0-1.3.5A1.43,1.43,0,0,0,424.2,424.3Zm12.6-6.7a5.24,5.24,0,0,1,3.3,1.1,4.08,4.08,0,0,1,1.6,3h-2.4a1.94,1.94,0,0,0-.9-1.4,2.45,2.45,0,0,0-1.6-.6,2.84,2.84,0,0,0-2.3,1.1,5.3,5.3,0,0,0,0,5.6,2.71,2.71,0,0,0,2.3,1.1,2.41,2.41,0,0,0,1.8-.7,3.34,3.34,0,0,0,.8-1.9h2.4a4.78,4.78,0,0,1-1.6,3.4,5,5,0,0,1-3.4,1.2,4.7,4.7,0,0,1-2.9-.8,5.06,5.06,0,0,1-2-2.1,6.17,6.17,0,0,1-.7-3.1,6.09,6.09,0,0,1,1.5-4.3A5.83,5.83,0,0,1,436.8,417.6Z" transform="translate(-46.9 -233.9)"/><path class="cls-1" d="M315,494h94.9v37H315Z" transform="translate(-46.9 -233.9)"/><path class="cls-9" d="M329,506.6a4.83,4.83,0,0,1,3.3,1,3.16,3.16,0,0,1,1.2,2.7h-2.4a1.49,1.49,0,0,0-.6-1.3,2.67,2.67,0,0,0-1.7-.4,2.13,2.13,0,0,0-1.2.3,1.1,1.1,0,0,0-.5,1,1.45,1.45,0,0,0,.2.7,1.91,1.91,0,0,0,.8.4c.4.1,1.3.4,2.8.7a4,4,0,0,1,2.2,1.2,2.86,2.86,0,0,1,.8,2.1,3.42,3.42,0,0,1-1.2,2.7,5.22,5.22,0,0,1-3.5,1,5.63,5.63,0,0,1-3.5-1.1,3.61,3.61,0,0,1-1.4-3v-.1h2.4a1.86,1.86,0,0,0,.7,1.6,3.45,3.45,0,0,0,1.8.5,2.54,2.54,0,0,0,1.6-.4,1.15,1.15,0,0,0,.6-1.1,1.05,1.05,0,0,0-.5-.9,5.71,5.71,0,0,0-1.5-.6q-1.35-.3-2.4-.6a4.18,4.18,0,0,1-1.8-1.1,2.49,2.49,0,0,1-.7-1.9,3.17,3.17,0,0,1,1.2-2.5A7.76,7.76,0,0,1,329,506.6Zm10.1,3.3a3.47,3.47,0,0,1,2.9,1.3,4.77,4.77,0,0,1,1.1,3.2v.4h-6a2.11,2.11,0,0,0,.6,1.6,2.07,2.07,0,0,0,1.5.5,2,2,0,0,0,1.1-.3,1.34,1.34,0,0,0,.7-.8h2a4.58,4.58,0,0,1-1.4,2.1,3.9,3.9,0,0,1-2.5.7,4.14,4.14,0,0,1-3.1-1.2,4.6,4.6,0,0,1,0-6.2A3.87,3.87,0,0,1,339.1,509.9Zm-2,3.4h3.7a2.26,2.26,0,0,0-.6-1.3,1.59,1.59,0,0,0-1.2-.4,1.89,1.89,0,0,0-1.9,1.7Zm12.1-3.4h.5V512h-.8a1.94,1.94,0,0,0-1.7.7,2.85,2.85,0,0,0-.5,1.9v3.8h-2.3v-8.3h2.2v1.5h0a2.76,2.76,0,0,1,1.1-1.3A2.82,2.82,0,0,1,349.2,509.9Zm3.1.2,1.8,5.7h0l1.7-5.7h2.3l-2.8,8.3h-2.5l-2.8-8.3h2.3Zm9-3.2v1.9H359v-1.9Zm0,3.2v8.3H359v-8.3h2.3Zm5.8-.2a4.55,4.55,0,0,1,2.7.8A3.26,3.26,0,0,1,371,513h-2.2a2.81,2.81,0,0,0-.5-1.1,2.14,2.14,0,0,0-1.2-.4,1.6,1.6,0,0,0-1.4.8,3.86,3.86,0,0,0,0,3.8,1.51,1.51,0,0,0,1.4.7,1.59,1.59,0,0,0,1.2-.4,2.28,2.28,0,0,0,.6-1.2h2.2a3.61,3.61,0,0,1-1.3,2.5,4,4,0,0,1-2.7.9,4.07,4.07,0,0,1-3-1.2,4.14,4.14,0,0,1-1.2-3.1,4.77,4.77,0,0,1,1.1-3.2A4.14,4.14,0,0,1,367.1,509.9Zm9,0a3.47,3.47,0,0,1,2.9,1.3,4.77,4.77,0,0,1,1.1,3.2v.4h-6a2.11,2.11,0,0,0,.6,1.6,2.07,2.07,0,0,0,1.5.5,2,2,0,0,0,1.1-.3,1.34,1.34,0,0,0,.7-.8h2a4.58,4.58,0,0,1-1.4,2.1,3.9,3.9,0,0,1-2.5.7,4.14,4.14,0,0,1-3.1-1.2,4.6,4.6,0,0,1,0-6.2A4.16,4.16,0,0,1,376.1,509.9Zm-1.9,3.4h3.7a2.26,2.26,0,0,0-.6-1.3,1.59,1.59,0,0,0-1.2-.4,1.73,1.73,0,0,0-1.3.5A1.43,1.43,0,0,0,374.2,513.3Zm12.5-6.4a5,5,0,0,1,3.7,1.5,7,7,0,0,1,0,8.4,4.82,4.82,0,0,1-3.7,1.5h-5V506.9Zm-.2,9.3a2.52,2.52,0,0,0,2-.9,3.84,3.84,0,0,0,.8-2.6,4.56,4.56,0,0,0-.8-2.9,3.09,3.09,0,0,0-2.4-.9h-1.9v7.2h2.3Z" transform="translate(-46.9 -233.9)"/><path class="cls-1" d="M102.1,494H197v37H102.1Z" transform="translate(-46.9 -233.9)"/><path class="cls-9" d="M117.2,506.9a4.82,4.82,0,0,1,3.7,1.5,7,7,0,0,1,0,8.4,4.82,4.82,0,0,1-3.7,1.5h-5V506.9Zm-.1,9.3a2.52,2.52,0,0,0,2-.9,3.84,3.84,0,0,0,.8-2.6,4.56,4.56,0,0,0-.8-2.9,3.09,3.09,0,0,0-2.4-.9h-1.9v7.2h2.3Zm10.6-6.3a4.91,4.91,0,0,1,2.7.6,2,2,0,0,1,.9,1.7v4.4a3.4,3.4,0,0,0,.1,1,1.88,1.88,0,0,0,.2.8h-2.3c0-.1-.1-.3-.1-.4s-.1-.3-.1-.4a3.6,3.6,0,0,1-1.2.8,4.15,4.15,0,0,1-1.6.3,3,3,0,0,1-2-.6,2.41,2.41,0,0,1-.8-1.9,2.14,2.14,0,0,1,.7-1.8,5,5,0,0,1,2.6-.8,7.46,7.46,0,0,0,1.7-.3.67.67,0,0,0,.4-.7,1,1,0,0,0-.3-.8,1.61,1.61,0,0,0-1.1-.3,1.8,1.8,0,0,0-1.1.3,1.27,1.27,0,0,0-.4.9h-2.3a2.75,2.75,0,0,1,1.1-2.1A5.2,5.2,0,0,1,127.7,509.9Zm-1.9,6.1a1.14,1.14,0,0,0,.3.8,1.61,1.61,0,0,0,1.1.3,1.74,1.74,0,0,0,1.9-1.9v-.9a.76.76,0,0,1-.5.2,7.08,7.08,0,0,1-1.2.2,2.3,2.3,0,0,0-1.1.4A1,1,0,0,0,125.8,516Zm10.1-8.4v2.5h1.7v1.5h-1.7v4.1a1.17,1.17,0,0,0,.2.7,1.29,1.29,0,0,0,.8.2h.7v1.8c-.2,0-.4.1-.6.1h-.7a3,3,0,0,1-2-.5,1.68,1.68,0,0,1-.6-1.4v-4.9h-1.4v-1.5h1.4v-2.5h2.2Zm6.6,2.3a4.91,4.91,0,0,1,2.7.6,2,2,0,0,1,.9,1.7v4.4a3.4,3.4,0,0,0,.1,1,1.88,1.88,0,0,0,.2.8h-2.3c0-.1-.1-.3-.1-.4s-.1-.3-.1-.4a3.6,3.6,0,0,1-1.2.8,4.15,4.15,0,0,1-1.6.3,3,3,0,0,1-2-.6,2.41,2.41,0,0,1-.8-1.9,2.14,2.14,0,0,1,.7-1.8,5,5,0,0,1,2.6-.8,7.46,7.46,0,0,0,1.7-.3.67.67,0,0,0,.4-.7,1,1,0,0,0-.3-.8,1.61,1.61,0,0,0-1.1-.3,1.8,1.8,0,0,0-1.1.3,1.27,1.27,0,0,0-.4.9h-2.3a2.75,2.75,0,0,1,1.1-2.1A5.2,5.2,0,0,1,142.5,509.9Zm-1.9,6.1a1.14,1.14,0,0,0,.3.8,1.61,1.61,0,0,0,1.1.3,1.74,1.74,0,0,0,1.9-1.9v-.9a.76.76,0,0,1-.5.2,7.08,7.08,0,0,1-1.2.2,2.3,2.3,0,0,0-1.1.4A1,1,0,0,0,140.6,516Zm9.5-9.1v4.2h0a2,2,0,0,1,1.1-.9,4,4,0,0,1,1.5-.3,2.85,2.85,0,0,1,2.4,1.2,4.55,4.55,0,0,1,1,3.2,4.72,4.72,0,0,1-1,3.2,3.17,3.17,0,0,1-2.5,1.2,4.31,4.31,0,0,1-1.7-.3,2,2,0,0,1-1-1h0v1.1h-2.2V507.1h2.4Zm0,7.3a3.56,3.56,0,0,0,.5,1.9,1.62,1.62,0,0,0,1.4.7,1.51,1.51,0,0,0,1.4-.7,2.85,2.85,0,0,0,.5-1.9,3.56,3.56,0,0,0-.5-1.9,1.75,1.75,0,0,0-2.8,0A2.85,2.85,0,0,0,150.1,514.2Zm11.3-4.3a4.91,4.91,0,0,1,2.7.6,2,2,0,0,1,.9,1.7v4.4a3.4,3.4,0,0,0,.1,1,1.88,1.88,0,0,0,.2.8H163c0-.1-.1-.3-.1-.4s-.1-.3-.1-.4a3.6,3.6,0,0,1-1.2.8,4.15,4.15,0,0,1-1.6.3,3,3,0,0,1-2-.6,2.41,2.41,0,0,1-.8-1.9,2.14,2.14,0,0,1,.7-1.8,5,5,0,0,1,2.6-.8,7.46,7.46,0,0,0,1.7-.3.67.67,0,0,0,.4-.7,1,1,0,0,0-.3-.8,1.61,1.61,0,0,0-1.1-.3,1.8,1.8,0,0,0-1.1.3,1.27,1.27,0,0,0-.4.9h-2.3a2.75,2.75,0,0,1,1.1-2.1A5.66,5.66,0,0,1,161.4,509.9Zm-1.8,6.1a1.14,1.14,0,0,0,.3.8,1.61,1.61,0,0,0,1.1.3,1.74,1.74,0,0,0,1.9-1.9v-.9a.76.76,0,0,1-.5.2,7.08,7.08,0,0,1-1.2.2,2.3,2.3,0,0,0-1.1.4A1,1,0,0,0,159.6,516Zm10.6-6.1a4,4,0,0,1,2.6.7,2.33,2.33,0,0,1,1,2h-2.2a1.27,1.27,0,0,0-.4-.9,1.8,1.8,0,0,0-1.1-.3,2.51,2.51,0,0,0-1,.2.6.6,0,0,0-.3.6.55.55,0,0,0,.4.6,6,6,0,0,0,1.6.5,5.67,5.67,0,0,1,2.5.9,2.13,2.13,0,0,1,.7,1.5,2.57,2.57,0,0,1-1,2.2,4.53,4.53,0,0,1-2.7.7,4.86,4.86,0,0,1-2.8-.7,2.53,2.53,0,0,1-1.1-2.2h2.2a1.23,1.23,0,0,0,.5,1,2.45,2.45,0,0,0,1.2.4,2,2,0,0,0,1.1-.3.91.91,0,0,0,.4-.8c0-.3-.2-.5-.5-.7a8.1,8.1,0,0,0-2-.6,7.09,7.09,0,0,1-2.1-.8,1.82,1.82,0,0,1-.6-1.4,2.38,2.38,0,0,1,.9-2A5.4,5.4,0,0,1,170.2,509.9Zm9,0a3.47,3.47,0,0,1,2.9,1.3,4.77,4.77,0,0,1,1.1,3.2v.4h-6a2.11,2.11,0,0,0,.6,1.6,1.84,1.84,0,0,0,1.5.5,2,2,0,0,0,1.1-.3,1.34,1.34,0,0,0,.7-.8h2a4.58,4.58,0,0,1-1.4,2.1,3.9,3.9,0,0,1-2.5.7,4.14,4.14,0,0,1-3.1-1.2,4.6,4.6,0,0,1,0-6.2A4.16,4.16,0,0,1,179.2,509.9Zm-1.9,3.4H181a2.26,2.26,0,0,0-.6-1.3,1.59,1.59,0,0,0-1.2-.4,1.73,1.73,0,0,0-1.3.5A1.43,1.43,0,0,0,177.3,513.3Z" transform="translate(-46.9 -233.9)"/><path class="cls-1" d="M197,325h94.9v37H197Z" transform="translate(-46.9 -233.9)"/><path class="cls-9" d="M211,337.6a4.83,4.83,0,0,1,3.3,1,3.16,3.16,0,0,1,1.2,2.7h-2.4a1.49,1.49,0,0,0-.6-1.3,2.67,2.67,0,0,0-1.7-.4,2.13,2.13,0,0,0-1.2.3,1.1,1.1,0,0,0-.5,1,1.45,1.45,0,0,0,.2.7,1.91,1.91,0,0,0,.8.4c.4.1,1.3.4,2.8.7a4,4,0,0,1,2.2,1.2,2.86,2.86,0,0,1,.8,2.1,3.42,3.42,0,0,1-1.2,2.7,5.22,5.22,0,0,1-3.5,1,5.62,5.62,0,0,1-3.5-1.1,3.61,3.61,0,0,1-1.4-3v-.1h2.4a1.86,1.86,0,0,0,.7,1.6,3.45,3.45,0,0,0,1.8.5,2.54,2.54,0,0,0,1.6-.4,1.15,1.15,0,0,0,.6-1.1,1.05,1.05,0,0,0-.5-.9,5.71,5.71,0,0,0-1.5-.6q-1.35-.3-2.4-.6a4.18,4.18,0,0,1-1.8-1.1,2.49,2.49,0,0,1-.7-1.9,3.17,3.17,0,0,1,1.2-2.5A7.76,7.76,0,0,1,211,337.6Zm10.1,3.3a3.47,3.47,0,0,1,2.9,1.3,5,5,0,0,1,1.1,3.2v.4h-6a2.11,2.11,0,0,0,.6,1.6,1.84,1.84,0,0,0,1.5.5,2,2,0,0,0,1.1-.3,1.34,1.34,0,0,0,.7-.8h2a4.58,4.58,0,0,1-1.4,2.1,3.9,3.9,0,0,1-2.5.7,4.14,4.14,0,0,1-3.1-1.2,4.6,4.6,0,0,1,0-6.2A3.87,3.87,0,0,1,221.1,340.9Zm-2,3.4h3.7a2.26,2.26,0,0,0-.6-1.3,1.59,1.59,0,0,0-1.2-.4,1.73,1.73,0,0,0-1.3.5A2.28,2.28,0,0,0,219.1,344.3Zm12.2-3.4h.5V343H231a1.94,1.94,0,0,0-1.7.7,2.85,2.85,0,0,0-.5,1.9v3.8h-2.3v-8.3h2.2v1.5h0a2.76,2.76,0,0,1,1.1-1.3A2.41,2.41,0,0,1,231.3,340.9Zm3,.2,1.8,5.7h0l1.7-5.7h2.3l-2.8,8.3h-2.5l-2.8-8.3Zm9-3.2v1.9H241v-1.9Zm0,3.2v8.3H241v-8.3Zm5.8-.2a4.55,4.55,0,0,1,2.7.8A3.26,3.26,0,0,1,253,344h-2.2a1.88,1.88,0,0,0-.5-1.1,2.14,2.14,0,0,0-1.2-.4,1.42,1.42,0,0,0-1.4.8,3.86,3.86,0,0,0,0,3.8,1.51,1.51,0,0,0,1.4.7,1.59,1.59,0,0,0,1.2-.4,2.28,2.28,0,0,0,.6-1.2h2.2a3.61,3.61,0,0,1-1.3,2.5,4,4,0,0,1-2.7.9,4.07,4.07,0,0,1-3-1.2,4.14,4.14,0,0,1-1.2-3.1,4.77,4.77,0,0,1,1.1-3.2A4.14,4.14,0,0,1,249.1,340.9Zm9,0a3.47,3.47,0,0,1,2.9,1.3,5,5,0,0,1,1.1,3.2v.4h-6a2.11,2.11,0,0,0,.6,1.6,1.84,1.84,0,0,0,1.5.5,2,2,0,0,0,1.1-.3,1.34,1.34,0,0,0,.7-.8h2a4.58,4.58,0,0,1-1.4,2.1,3.9,3.9,0,0,1-2.5.7,4.14,4.14,0,0,1-3.1-1.2,4.6,4.6,0,0,1,0-6.2A4.16,4.16,0,0,1,258.1,340.9Zm-1.9,3.4h3.7a2.26,2.26,0,0,0-.6-1.3,1.59,1.59,0,0,0-1.2-.4,1.89,1.89,0,0,0-1.9,1.7Zm13.2-6.4,4.3,11.4h-2.6l-.9-2.5h-4.3l-.9,2.5h-2.5l4.3-11.4Zm-1.3,2.8-1.5,4.2h3l-1.5-4.2Z" transform="translate(-46.9 -233.9)"/><path class="cls-1" d="M356.5,309.9H492V353H356.5Z" transform="translate(-46.9 -233.9)"/><path class="cls-5" d="M368.7,323.2l3.2,5.4,3.2-5.4h3.3l-5,8.4v5.2h-3v-5.3l-5-8.3h3.3Zm15,3.5a5.14,5.14,0,0,1,3.7,1.4,5.22,5.22,0,0,1,1.4,3.8,5.38,5.38,0,0,1-1.4,3.8,5.59,5.59,0,0,1-7.4,0,5.22,5.22,0,0,1-1.4-3.8,5.38,5.38,0,0,1,1.4-3.8A5.31,5.31,0,0,1,383.7,326.7Zm-2.3,5.2a4.27,4.27,0,0,0,.6,2.4,2.42,2.42,0,0,0,3.6,0,4.71,4.71,0,0,0,0-4.6,2,2,0,0,0-1.8-.8,2.14,2.14,0,0,0-1.7.8A2.64,2.64,0,0,0,381.4,331.9Zm11.7-4.9v5.6a2.86,2.86,0,0,0,.4,1.7,1.49,1.49,0,0,0,1.3.6,1.75,1.75,0,0,0,1.6-.7,3.44,3.44,0,0,0,.5-2V327h2.7v9.8H397v-1.4h0a3.74,3.74,0,0,1-1.3,1.2,3.29,3.29,0,0,1-1.7.4,3.67,3.67,0,0,1-2.7-.9,4.14,4.14,0,0,1-.9-3V327Zm18-.3a5.42,5.42,0,0,1,3.2.7,2.31,2.31,0,0,1,1.1,2v5.3a4.87,4.87,0,0,0,.1,1.2c.1.4.1.7.3.9H413a.75.75,0,0,1-.1-.5c0-.2-.1-.3-.1-.5a3.39,3.39,0,0,1-1.4.9,5.82,5.82,0,0,1-1.9.3,3.65,3.65,0,0,1-2.4-.8,2.66,2.66,0,0,1-.9-2.2,2.86,2.86,0,0,1,.8-2.1,6.21,6.21,0,0,1,3.1-1,7,7,0,0,0,2.1-.4.89.89,0,0,0,.5-.8,1.16,1.16,0,0,0-.4-1,2.06,2.06,0,0,0-1.3-.3,1.7,1.7,0,0,0-1.3.4,1.29,1.29,0,0,0-.5,1.1h-2.7a3.26,3.26,0,0,1,1.3-2.5A7.36,7.36,0,0,1,411.1,326.7Zm-2.2,7.3a1,1,0,0,0,.4.9,2.27,2.27,0,0,0,1.3.3,2,2,0,0,0,1.6-.6,2.07,2.07,0,0,0,.5-1.6v-1l-.6.3a11.28,11.28,0,0,1-1.4.2c-.6.1-1.1.2-1.3.5A1,1,0,0,0,408.9,334Zm14.2-7.3h.3a.37.37,0,0,1,.3.1v2.5c-.2,0-.3-.1-.5-.1h-.5a2.48,2.48,0,0,0-2,.8,3.84,3.84,0,0,0-.7,2.2v4.5h-2.7V327h2.6v1.8h0a3.18,3.18,0,0,1,1.3-1.5A3.29,3.29,0,0,1,423.1,326.7Zm6,0a4.4,4.4,0,0,1,3.5,1.5,5.49,5.49,0,0,1,1.3,3.8v.5h-7.1a2.23,2.23,0,0,0,.7,1.9,2.61,2.61,0,0,0,1.8.6,2,2,0,0,0,1.3-.4,1.71,1.71,0,0,0,.8-.9h2.4a5.08,5.08,0,0,1-1.7,2.5,5.22,5.22,0,0,1-2.9.8,4.9,4.9,0,0,1-3.6-1.4,5.59,5.59,0,0,1,0-7.4A4.54,4.54,0,0,1,429.1,326.7Zm-2.3,4.1h4.4a3.38,3.38,0,0,0-.7-1.6,2.07,2.07,0,0,0-1.5-.5,2.11,2.11,0,0,0-1.6.6A3.39,3.39,0,0,0,426.8,330.8Zm16.4-7.6v5.1h.1a3.45,3.45,0,0,1,1.2-1.2,3.37,3.37,0,0,1,1.7-.5,3.21,3.21,0,0,1,2.7,1,4.14,4.14,0,0,1,.9,3v6.1H447v-5.6a2.67,2.67,0,0,0-.4-1.7,1.49,1.49,0,0,0-1.3-.6,1.65,1.65,0,0,0-1.6.7,3.44,3.44,0,0,0-.5,2v5.2h-2.7V323.1h2.7Zm12.9,3.5a4.4,4.4,0,0,1,3.5,1.5,5.49,5.49,0,0,1,1.3,3.8v.5h-7.1a2.23,2.23,0,0,0,.7,1.9,2.61,2.61,0,0,0,1.8.6,2,2,0,0,0,1.3-.4,1.71,1.71,0,0,0,.8-.9h2.4a5.08,5.08,0,0,1-1.7,2.5,5.22,5.22,0,0,1-2.9.8,4.9,4.9,0,0,1-3.6-1.4,5.59,5.59,0,0,1,0-7.4A4.26,4.26,0,0,1,456.1,326.7Zm-2.3,4.1h4.4a3.38,3.38,0,0,0-.7-1.6,2.07,2.07,0,0,0-1.5-.5,2.11,2.11,0,0,0-1.6.6A2,2,0,0,0,453.8,330.8Zm14.2-4.1h.3a.37.37,0,0,1,.3.1v2.5c-.2,0-.3-.1-.5-.1h-.5a2.48,2.48,0,0,0-2,.8,3.84,3.84,0,0,0-.7,2.2v4.5h-2.7V327h2.6v1.8h0a3.18,3.18,0,0,1,1.3-1.5A3.29,3.29,0,0,1,468,326.7Zm6.1,0a4.4,4.4,0,0,1,3.5,1.5,5.49,5.49,0,0,1,1.3,3.8v.5h-7.1a2.23,2.23,0,0,0,.7,1.9,2.61,2.61,0,0,0,1.8.6,2,2,0,0,0,1.3-.4,1.71,1.71,0,0,0,.8-.9h2.4a5.08,5.08,0,0,1-1.7,2.5,5.22,5.22,0,0,1-2.9.8,4.9,4.9,0,0,1-3.6-1.4,5.59,5.59,0,0,1,0-7.4A4.26,4.26,0,0,1,474.1,326.7Zm-2.4,4.1h4.4a3.38,3.38,0,0,0-.7-1.6,2.07,2.07,0,0,0-1.5-.5,2.11,2.11,0,0,0-1.6.6A3.39,3.39,0,0,0,471.7,330.8Z" transform="translate(-46.9 -233.9)"/><path class="cls-1" d="M356.5,331.4,315,343.5" transform="translate(-46.9 -233.9)"/><path class="cls-10" d="M356.5,331.4l-30,8.7" transform="translate(-46.9 -233.9)"/><path class="cls-11" d="M325.6,337l-7.8,5.7,9.6.6Z" transform="translate(-46.9 -233.9)"/></svg>
