<?xml version="1.0" encoding="utf-8"?>
<!-- Generator: Adobe Illustrator 24.2.3, SVG Export Plug-In . SVG Version: 6.00 Build 0)  -->
<svg version="1.1" xmlns="http://www.w3.org/2000/svg" xmlns:xlink="http://www.w3.org/1999/xlink" x="0px" y="0px"
	 viewBox="0 0 1024 503" style="enable-background:new 0 0 1024 503;" xml:space="preserve">
<style type="text/css">
	.st0{fill:#F1F1F1;}
	.st1{fill:#D6E2FA;}
	.st2{fill:none;stroke:#D6E2FA;stroke-width:4;stroke-linecap:round;stroke-miterlimit:10;}
	.st3{fill:none;stroke:#326CE5;stroke-width:4;stroke-linecap:round;stroke-miterlimit:10;stroke-dasharray:0.02504,8.01234;}
	.st4{fill:none;stroke:#222222;stroke-width:2;stroke-linecap:round;stroke-linejoin:round;stroke-miterlimit:10;}
	.st5{fill:#343434;}
	.st6{fill:#FFFFFF;stroke:#666666;stroke-width:2.5;stroke-linecap:round;stroke-miterlimit:10;}
	.st7{fill:#FFFFFF;stroke:#666666;stroke-width:1.75;stroke-miterlimit:10;}
	.st8{fill:#FFFFFF;stroke:#666666;stroke-width:2.5;stroke-miterlimit:10;}
	.st9{fill:none;stroke:#666666;stroke-width:1.75;stroke-miterlimit:10;}
	.st10{fill:#666666;}
	.st11{fill:none;stroke:#D6E2FA;stroke-width:4;stroke-linecap:round;stroke-linejoin:round;stroke-miterlimit:10;}
	.st12{fill:none;}
	.st13{fill:#222222;}
	.st14{fill:#999999;}
	.st15{fill:#009639;}
	.st16{fill:none;stroke:#FFFFFF;stroke-width:2.40964;stroke-linecap:round;stroke-linejoin:round;stroke-miterlimit:10;}
	.st17{fill:none;stroke:#FFFFFF;stroke-width:1.60241;stroke-linecap:round;stroke-linejoin:round;stroke-miterlimit:10;}
	.st18{fill:#FFFFFF;}
	.st19{fill:none;stroke:#00297A;stroke-width:2.5;stroke-linecap:round;stroke-miterlimit:10;}
	.st20{fill:#00297A;}
	.st21{fill:#D6E2FA;stroke:#D6E2FA;stroke-width:4;stroke-linecap:round;stroke-miterlimit:10;}
	.st22{fill:#326DE6;}
	.st23{fill:none;stroke:#009639;stroke-width:2;stroke-linecap:round;stroke-linejoin:round;stroke-miterlimit:10;}
	.st24{fill:none;stroke:#666666;stroke-width:1.75;stroke-linecap:round;stroke-linejoin:round;stroke-miterlimit:10;}
	.st25{fill:#FFFFFF;stroke:#666666;stroke-width:1.75;stroke-linecap:round;stroke-linejoin:round;stroke-miterlimit:10;}
	.st26{fill:none;stroke:#666666;stroke-width:1.75;stroke-linecap:round;stroke-miterlimit:10;}
</style>
<g id="Background">
	<rect class="st0" width="1024" height="503"/>
</g>
<g id="Art">
	<g>
		<path class="st1" d="M994,463c0,5.5-4.5,10-10,10H429.78979c-5.5,0-10-4.5-10-10V60c0-5.5,4.5-10,10-10H984c5.5,0,10,4.5,10,10
			V463z"/>
		<path class="st2" d="M994,463c0,5.5-4.5,10-10,10H429.78979c-5.5,0-10-4.5-10-10V60c0-5.5,4.5-10,10-10H984c5.5,0,10,4.5,10,10
			V463z"/>
	</g>
	<g>
		<path class="st3" d="M994,463c0,5.5-4.5,10-10,10H429.78979c-5.5,0-10-4.5-10-10V60c0-5.5,4.5-10,10-10H984c5.5,0,10,4.5,10,10
			V463z"/>
	</g>
	<g>
		<line class="st4" x1="365.80524" y1="262.25037" x2="360.92697" y2="267.12866"/>
		<line class="st4" x1="365.80527" y1="262.25037" x2="360.92703" y2="257.37216"/>
	</g>
	<g>
		<g>
			<path class="st5" d="M859.22754,398.24023h7.30176v1.94043h-5.08105v3.62109h4.94043v1.95996h-4.94043v3.86133h5.08105v1.95996
				h-7.30176V398.24023z"/>
			<path class="st5" d="M873.9082,405.00195c0-1.14062-0.52051-1.56055-1.38086-1.56055s-1.60059,0.66016-1.95996,1.33984v6.80176
				h-2.00098v-9.66211h2.00098v1.30078c0.51953-0.78027,1.60059-1.54102,2.80078-1.54102c1.74023,0,2.54004,0.95996,2.54004,2.62109
				v7.28125h-2V405.00195z"/>
			<path class="st5" d="M879.00684,412.74316c0.66016,0.7207,1.5,1.08008,2.5,1.08008c1.2002,0,2.28125-0.66016,2.28125-2.41992
				v-1.38086c-0.58105,0.98047-1.52051,1.58008-2.48145,1.58008c-2.16016,0-3.52051-1.86035-3.52051-4.96094
				c0-3.06055,1.34082-4.96094,3.52051-4.96094c0.94043,0,1.88086,0.5,2.48145,1.54102v-1.30078h1.97949v9.32227
				c0,3.34082-2.08008,4.26074-4.16016,4.26074c-1.38086,0-2.46094-0.32031-3.4209-1.2207L879.00684,412.74316z
				 M883.78809,404.76172c-0.34082-0.7207-1.12109-1.32031-1.88086-1.32031c-1.37988,0-2.06055,1.33984-2.06055,3.2002
				c0,1.84082,0.68066,3.18066,2.06055,3.18066c0.75977,0,1.54004-0.59961,1.88086-1.32031V404.76172z"/>
			<path class="st5" d="M887.86621,399.08008c0-0.7002,0.58008-1.25977,1.26074-1.25977c0.67969,0,1.24023,0.55957,1.24023,1.25977
				c0,0.68066-0.56055,1.24023-1.24023,1.24023C888.44629,400.32031,887.86621,399.76074,887.86621,399.08008z M888.12598,401.9209
				h2.00098v9.66211h-2.00098V401.9209z"/>
			<path class="st5" d="M897.82715,405.00195c0-1.14062-0.51953-1.56055-1.37988-1.56055s-1.60059,0.66016-1.96094,1.33984v6.80176
				h-2v-9.66211h2v1.30078c0.52051-0.78027,1.60059-1.54102,2.80078-1.54102c1.74023,0,2.54102,0.95996,2.54102,2.62109v7.28125
				h-2.00098V405.00195z"/>
			<path class="st5" d="M905.84668,401.68066c2.62012,0,4.02051,2.2207,4.02051,5.1416v0.58008h-6.14062
				c0.08008,1.58008,0.95996,2.78027,2.52051,2.78027c0.75977,0,1.62012-0.37988,2.17969-1.04004l0.96094,1.2002
				c-0.82031,0.94043-2.04102,1.48047-3.34082,1.48047c-2.66113,0-4.34082-2.08105-4.34082-5.08105
				C901.70605,403.94141,903.26562,401.68066,905.84668,401.68066z M903.70605,405.98145h4.2207
				c-0.01953-1.2002-0.55957-2.68066-2.10059-2.68066C904.32617,403.30078,903.7666,404.82129,903.70605,405.98145z"/>
			<path class="st5" d="M915.32617,401.68066c2.62109,0,4.02148,2.2207,4.02148,5.1416v0.58008h-6.1416
				c0.08008,1.58008,0.95996,2.78027,2.52051,2.78027c0.76074,0,1.62012-0.37988,2.18066-1.04004l0.95996,1.2002
				c-0.82031,0.94043-2.04004,1.48047-3.34082,1.48047c-2.66016,0-4.34082-2.08105-4.34082-5.08105
				C911.18555,403.94141,912.74609,401.68066,915.32617,401.68066z M913.18652,405.98145h4.2207
				c-0.02051-1.2002-0.56055-2.68066-2.10059-2.68066C913.80664,403.30078,913.24609,404.82129,913.18652,405.98145z"/>
			<path class="st5" d="M921.14551,401.9209h2.00098v1.41992c0.55957-0.93945,1.58008-1.63965,2.66016-1.63965v1.98047
				c-0.16016-0.04004-0.33984-0.06055-0.51953-0.06055c-0.82031,0-1.74121,0.62012-2.14062,1.34082v6.62109h-2.00098V401.9209z"/>
			<path class="st5" d="M927.0459,399.08008c0-0.7002,0.58008-1.25977,1.26074-1.25977c0.67969,0,1.24023,0.55957,1.24023,1.25977
				c0,0.68066-0.56055,1.24023-1.24023,1.24023C927.62598,400.32031,927.0459,399.76074,927.0459,399.08008z M927.30566,401.9209
				h2.00098v9.66211h-2.00098V401.9209z"/>
			<path class="st5" d="M937.00684,405.00195c0-1.14062-0.51953-1.56055-1.37988-1.56055s-1.60059,0.66016-1.96094,1.33984v6.80176
				h-2v-9.66211h2v1.30078c0.52051-0.78027,1.60059-1.54102,2.80078-1.54102c1.74023,0,2.54102,0.95996,2.54102,2.62109v7.28125
				h-2.00098V405.00195z"/>
			<path class="st5" d="M942.10547,412.74316c0.66016,0.7207,1.50098,1.08008,2.50098,1.08008
				c1.2002,0,2.28027-0.66016,2.28027-2.41992v-1.38086c-0.58008,0.98047-1.52051,1.58008-2.48047,1.58008
				c-2.16016,0-3.52051-1.86035-3.52051-4.96094c0-3.06055,1.33984-4.96094,3.52051-4.96094c0.94043,0,1.87988,0.5,2.48047,1.54102
				v-1.30078h1.98047v9.32227c0,3.34082-2.08008,4.26074-4.16113,4.26074c-1.37988,0-2.45996-0.32031-3.4209-1.2207
				L942.10547,412.74316z M946.88672,404.76172c-0.33984-0.7207-1.12012-1.32031-1.88086-1.32031
				c-1.37988,0-2.05957,1.33984-2.05957,3.2002c0,1.84082,0.67969,3.18066,2.05957,3.18066
				c0.76074,0,1.54102-0.59961,1.88086-1.32031V404.76172z"/>
			<path class="st5" d="M896.41797,428.94238h-4.58105l-0.7207,2.64062h-2.2998l3.98047-13.34277h2.66113l3.98047,13.34277h-2.30078
				L896.41797,428.94238z M892.29688,426.98242h3.68066l-1.83984-6.76172L892.29688,426.98242z"/>
			<path class="st5" d="M900.67578,435.26367V421.9209h2.00098v1.28027c0.55957-0.95996,1.5-1.52051,2.48047-1.52051
				c2.18066,0,3.52051,1.94043,3.52051,5.06152c0,3.08008-1.33984,5.08105-3.52051,5.08105c-0.95996,0-1.90039-0.5-2.48047-1.54004
				v4.98047H900.67578z M904.55664,423.44141c-0.75977,0-1.54004,0.58008-1.87988,1.32031v3.96094
				c0.33984,0.71973,1.12012,1.33984,1.87988,1.33984c1.38086,0,2.06055-1.45996,2.06055-3.32031
				S905.9375,423.44141,904.55664,423.44141z"/>
			<path class="st5" d="M910.53613,435.26367V421.9209h2v1.28027c0.56055-0.95996,1.50098-1.52051,2.48047-1.52051
				c2.18066,0,3.52148,1.94043,3.52148,5.06152c0,3.08008-1.34082,5.08105-3.52148,5.08105c-0.95996,0-1.90039-0.5-2.48047-1.54004
				v4.98047H910.53613z M914.41699,423.44141c-0.76074,0-1.54004,0.58008-1.88086,1.32031v3.96094
				c0.34082,0.71973,1.12012,1.33984,1.88086,1.33984c1.37988,0,2.06055-1.45996,2.06055-3.32031
				S915.79688,423.44141,914.41699,423.44141z"/>
		</g>
	</g>
	<g>
		<g>
			<g>
				<path class="st6" d="M935.83844,369.43097c4.64233-0.86063,8.15784-4.93109,8.15784-9.82263v-42.55411
					c0-5.51752-4.47284-9.99033-9.99036-9.99033h-42.55414c-4.82782,0-8.85577,3.4245-9.78735,7.97693"/>
				<line class="st7" x1="933.54333" y1="323.8577" x2="943.99628" y2="323.8577"/>
			</g>
		</g>
		<g>
			<g>
				<path class="st8" d="M926.41998,378.24741c4.64233-0.86063,8.15784-4.93109,8.15784-9.82263v-42.55411
					c0-5.51752-4.47284-9.99033-9.99036-9.99033h-42.55414c-4.82782,0-8.85577,3.4245-9.78735,7.97693"/>
				<line class="st9" x1="926.45099" y1="332.67413" x2="934.57782" y2="332.67413"/>
			</g>
		</g>
		<g>
			<path class="st8" d="M916.54053,324.52921h-42.55408c-5.51752,0-9.99036,4.47281-9.99036,9.99033v42.55405
				c0,5.51752,4.47284,9.99033,9.99036,9.99033h42.55408c5.51752,0,9.99036-4.47281,9.99036-9.99033v-42.55405
				C926.53088,329.00201,922.05804,324.52921,916.54053,324.52921z"/>
			<line class="st9" x1="863.99609" y1="341.32297" x2="926.53088" y2="341.32297"/>
			<g>
				<circle class="st10" cx="876.039" cy="332.92596" r="2.34505"/>
				<circle class="st10" cx="889.96021" cy="332.92596" r="2.34505"/>
				<circle class="st10" cx="882.99963" cy="332.92596" r="2.34505"/>
			</g>
		</g>
	</g>
	<g>
		<g>
			<path class="st5" d="M867.2666,194.81738l-3.24023,9.70215h-0.86035l-3.2002-9.70215v9.70215h-2.2207v-13.34277h3
				l2.86133,8.62207l2.87988-8.62207h2.98145v13.34277h-2.20117V194.81738z"/>
			<path class="st5" d="M876.90527,203.53906c-0.58008,0.80078-1.55957,1.2207-2.54004,1.2207
				c-1.56055,0-2.96094-1.16016-2.96094-3.2207c0-2.08105,1.40039-3.14062,2.96094-3.14062
				c0.98047,0,1.98047,0.37988,2.54004,1.16016v-1.40039c0-1.16016-0.67969-1.84082-1.87988-1.84082
				c-0.86035,0-1.66016,0.34082-2.40039,1.10059l-0.78027-1.40039c0.98047-0.98047,2.30078-1.40039,3.54102-1.40039
				c2.02051,0,3.5,0.94043,3.5,3.30078v6.60156h-1.98047V203.53906z M876.90527,200.8584
				c-0.37988-0.67969-1.09961-1.08008-1.82031-1.08008c-1.04004,0-1.67969,0.76074-1.67969,1.80078s0.63965,1.7998,1.67969,1.7998
				c0.7207,0,1.44043-0.39941,1.82031-1.05957V200.8584z"/>
			<path class="st5" d="M881.24414,194.85742h2.00098v1.41992c0.55957-0.93945,1.58008-1.63965,2.66016-1.63965v1.98047
				c-0.16016-0.04004-0.33984-0.06055-0.51953-0.06055c-0.82031,0-1.74121,0.62012-2.14062,1.34082v6.62109h-2.00098V194.85742z"/>
			<path class="st5" d="M890.56543,200.47852l-1.16016,1.56055v2.48047h-2.00098v-13.34277h2.00098v8.42188l3.40039-4.74121h2.32031
				l-3.2002,4.34082l3.26074,5.32129h-2.34082L890.56543,200.47852z"/>
			<path class="st5" d="M899.8457,194.61719c2.62012,0,4.02051,2.2207,4.02051,5.1416v0.58008h-6.14062
				c0.08008,1.58008,0.95996,2.78027,2.52051,2.78027c0.75977,0,1.62012-0.37988,2.17969-1.04004l0.96094,1.2002
				c-0.82031,0.94043-2.04102,1.48047-3.34082,1.48047c-2.66113,0-4.34082-2.08105-4.34082-5.08105
				C895.70508,196.87793,897.26465,194.61719,899.8457,194.61719z M897.70508,198.91797h4.2207
				c-0.01953-1.2002-0.55957-2.68066-2.10059-2.68066C898.3252,196.2373,897.76562,197.75781,897.70508,198.91797z"/>
			<path class="st5" d="M906.02539,202.35938v-5.76172h-1.26074v-1.74023h1.26074v-2.64062h2v2.64062h1.60059v1.74023h-1.60059
				v5.3418c0,0.65918,0.21973,1.05957,0.74023,1.05957c0.32031,0,0.62012-0.13965,0.75977-0.32031l0.48047,1.50098
				c-0.36035,0.35938-0.91992,0.58008-1.74023,0.58008C906.74512,204.75977,906.02539,203.93945,906.02539,202.35938z"/>
			<path class="st5" d="M911.06445,192.0166c0-0.7002,0.58008-1.25977,1.26074-1.25977c0.67969,0,1.24023,0.55957,1.24023,1.25977
				c0,0.68066-0.56055,1.24023-1.24023,1.24023C911.64453,193.25684,911.06445,192.69727,911.06445,192.0166z M911.32422,194.85742
				h2.00098v9.66211h-2.00098V194.85742z"/>
			<path class="st5" d="M921.02539,197.93848c0-1.14062-0.51953-1.56055-1.37988-1.56055s-1.60059,0.66016-1.96094,1.33984v6.80176
				h-2v-9.66211h2v1.30078c0.52051-0.78027,1.60059-1.54102,2.80078-1.54102c1.74023,0,2.54102,0.95996,2.54102,2.62109v7.28125
				h-2.00098V197.93848z"/>
			<path class="st5" d="M926.12402,205.67969c0.66016,0.7207,1.50098,1.08008,2.50098,1.08008
				c1.2002,0,2.28027-0.66016,2.28027-2.41992v-1.38086c-0.58008,0.98047-1.52051,1.58008-2.48047,1.58008
				c-2.16016,0-3.52051-1.86035-3.52051-4.96094c0-3.06055,1.33984-4.96094,3.52051-4.96094c0.94043,0,1.87988,0.5,2.48047,1.54102
				v-1.30078h1.98047v9.32227c0,3.34082-2.08008,4.26074-4.16113,4.26074c-1.37988,0-2.45996-0.32031-3.4209-1.2207
				L926.12402,205.67969z M930.90527,197.69824c-0.33984-0.7207-1.12012-1.32031-1.88086-1.32031
				c-1.37988,0-2.05957,1.33984-2.05957,3.2002c0,1.84082,0.67969,3.18066,2.05957,3.18066
				c0.76074,0,1.54102-0.59961,1.88086-1.32031V197.69824z"/>
			<path class="st5" d="M887.68555,221.87891h-4.58105l-0.71973,2.64062h-2.30078l3.98145-13.34277h2.66016l3.98047,13.34277
				h-2.2998L887.68555,221.87891z M883.56543,219.91895h3.68066l-1.84082-6.76172L883.56543,219.91895z"/>
			<path class="st5" d="M891.94434,228.2002v-13.34277h2v1.28027c0.56055-0.95996,1.50098-1.52051,2.48047-1.52051
				c2.18066,0,3.52148,1.94043,3.52148,5.06152c0,3.08008-1.34082,5.08105-3.52148,5.08105c-0.95996,0-1.90039-0.5-2.48047-1.54004
				v4.98047H891.94434z M895.8252,216.37793c-0.76074,0-1.54004,0.58008-1.88086,1.32031v3.96094
				c0.34082,0.71973,1.12012,1.33984,1.88086,1.33984c1.37988,0,2.06055-1.45996,2.06055-3.32031
				S897.20508,216.37793,895.8252,216.37793z"/>
			<path class="st5" d="M901.80371,228.2002v-13.34277h2.00098v1.28027c0.55957-0.95996,1.5-1.52051,2.48047-1.52051
				c2.18066,0,3.52051,1.94043,3.52051,5.06152c0,3.08008-1.33984,5.08105-3.52051,5.08105c-0.95996,0-1.90039-0.5-2.48047-1.54004
				v4.98047H901.80371z M905.68457,216.37793c-0.75977,0-1.54004,0.58008-1.87988,1.32031v3.96094
				c0.33984,0.71973,1.12012,1.33984,1.87988,1.33984c1.38086,0,2.06055-1.45996,2.06055-3.32031
				S907.06543,216.37793,905.68457,216.37793z"/>
		</g>
	</g>
	<g>
		<g>
			<path class="st6" d="M935.83844,162.36707c4.64233-0.86061,8.15784-4.93108,8.15784-9.82262v-42.55412
				c0-5.5175-4.47284-9.99033-9.99036-9.99033h-42.55414c-4.82782,0-8.85577,3.4245-9.78735,7.97692"/>
			<line class="st7" x1="933.54333" y1="116.79379" x2="943.99628" y2="116.79379"/>
		</g>
	</g>
	<g>
		<g>
			<path class="st8" d="M926.41998,171.1835c4.64233-0.86061,8.15784-4.93108,8.15784-9.82262v-42.55412
				c0-5.5175-4.47284-9.99033-9.99036-9.99033h-42.55414c-4.82782,0-8.85577,3.4245-9.78735,7.97692"/>
			<line class="st9" x1="926.45099" y1="125.61023" x2="934.57782" y2="125.61023"/>
		</g>
	</g>
	<g>
		<path class="st8" d="M916.54053,117.4653h-42.55408c-5.51752,0-9.99036,4.47282-9.99036,9.99032v42.55407
			c0,5.51749,4.47284,9.99031,9.99036,9.99031h42.55408c5.51752,0,9.99036-4.47282,9.99036-9.99031v-42.55407
			C926.53088,121.93812,922.05804,117.4653,916.54053,117.4653z"/>
		<line class="st9" x1="863.99609" y1="134.25906" x2="926.53088" y2="134.25906"/>
		<g>
			<circle class="st10" cx="876.039" cy="125.86207" r="2.34505"/>
			<circle class="st10" cx="889.96021" cy="125.86207" r="2.34505"/>
			<circle class="st10" cx="882.99963" cy="125.86207" r="2.34505"/>
		</g>
	</g>
	<rect x="419.78979" y="201.09273" class="st11" width="30.51157" height="167.024"/>
	<g>
		<rect x="336.10544" y="310.73441" class="st12" width="167.36874" height="53.84569"/>
		<path class="st13" d="M371.33203,314.35254v9.72168h-2.34082v-13.34277h2.40039l6.82129,9.46191v-9.46191h2.34082v13.34277
			h-2.26074L371.33203,314.35254z"/>
		<path class="st13" d="M389.79297,310.51172c2.60059,0,4.30078,1.24023,5.38086,2.78027l-1.9209,1.08008
			c-0.7002-1-1.95996-1.78027-3.45996-1.78027c-2.64062,0-4.60156,2.02051-4.60156,4.82129s1.96094,4.84082,4.60156,4.84082
			c1.36035,0,2.56055-0.64062,3.16016-1.2002v-2.08105h-3.98047v-2.05957h6.32129v5.00098
			c-1.32031,1.45996-3.18066,2.41992-5.50098,2.41992c-3.86133,0-7.00195-2.74023-7.00195-6.9209
			C382.79102,313.23145,385.93164,310.51172,389.79297,310.51172z"/>
		<path class="st13" d="M397.73145,310.73145h2.33984v13.34277h-2.33984V310.73145z"/>
		<path class="st13" d="M405.25098,314.35254v9.72168h-2.33984v-13.34277h2.40039l6.82129,9.46191v-9.46191h2.34082v13.34277
			h-2.26074L405.25098,314.35254z"/>
		<path class="st13" d="M422.49219,318.85352l-3.74121,5.2207h-2.80078l5.00098-6.8418l-4.70117-6.50098h2.80078l3.44141,4.90137
			l3.41992-4.90137h2.82129l-4.68164,6.48145l4.98145,6.86133h-2.80078L422.49219,318.85352z"/>
		<path class="st13" d="M435.66992,310.73145h5.86133c2.80078,0,4.36133,1.91992,4.36133,4.18066s-1.58105,4.18066-4.36133,4.18066
			h-3.52051v4.98145h-2.34082V310.73145z M441.21094,312.79199h-3.2002v4.24023h3.2002c1.32031,0,2.28125-0.83984,2.28125-2.12012
			S442.53125,312.79199,441.21094,312.79199z"/>
		<path class="st13" d="M447.76953,310.73145h2.10059v13.34277h-2.10059V310.73145z"/>
		<path class="st13" d="M459.11133,322.79395c-0.7002,0.78027-1.90039,1.52051-3.4209,1.52051
			c-2.08105,0-3.10059-1.08008-3.10059-3.06055v-6.8418h2.10059v6.08105c0,1.50098,0.75977,1.96094,1.94043,1.96094
			c1.05957,0,1.97949-0.60059,2.48047-1.26074v-6.78125h2.09961v9.66211h-2.09961V322.79395z"/>
		<path class="st13" d="M464.0498,321.29395c0.67969,0.7002,2.02051,1.36035,3.28027,1.36035
			c1.26074,0,1.90039-0.46094,1.90039-1.18066c0-0.83984-1.02051-1.14062-2.2002-1.40039
			c-1.66016-0.36035-3.64062-0.7998-3.64062-2.96094c0-1.58008,1.36035-2.94043,3.80078-2.94043
			c1.63965,0,2.87988,0.58008,3.76074,1.36035l-0.88086,1.48047c-0.58008-0.66016-1.66016-1.16016-2.86035-1.16016
			c-1.10059,0-1.7998,0.40039-1.7998,1.08008c0,0.74023,0.95996,1,2.09961,1.26074c1.68066,0.35938,3.74121,0.83984,3.74121,3.12012
			c0,1.7002-1.41992,3.00098-4.02051,3.00098c-1.64062,0-3.14062-0.52051-4.1416-1.50098L464.0498,321.29395z"/>
		<path class="st13" d="M388.6709,330.73145h2.34082v13.34277h-2.34082V330.73145z"/>
		<path class="st13" d="M400.3125,338.0332c0-1.50098-0.76074-2.00098-1.94043-2.00098c-1.08105,0-2.00098,0.64062-2.48047,1.30078
			v6.74121h-2.10059v-9.66211h2.10059v1.32031c0.63965-0.75977,1.87988-1.56055,3.40039-1.56055
			c2.08008,0,3.12012,1.12012,3.12012,3.10059v6.80176h-2.09961V338.0332z"/>
		<path class="st13" d="M405.99121,345.03418c0.7793,0.90039,1.78027,1.24023,3.06055,1.24023
			c1.37988,0,2.86035-0.63965,2.86035-2.62012v-1.16016c-0.74023,0.95996-1.84082,1.59961-3.10059,1.59961
			c-2.46094,0-4.28125-1.78027-4.28125-4.96094c0-3.12012,1.80078-4.96094,4.28125-4.96094
			c1.21973,0,2.32031,0.56055,3.10059,1.58105v-1.34082h2.10059v9.16211c0,3.48047-2.58105,4.4209-4.96094,4.4209
			c-1.64062,0-2.86133-0.36035-4.04102-1.44043L405.99121,345.03418z M411.91211,337.33301
			c-0.45996-0.7207-1.5-1.30078-2.48047-1.30078c-1.66016,0-2.7207,1.24023-2.7207,3.10059s1.06055,3.10059,2.7207,3.10059
			c0.98047,0,2.02051-0.58008,2.48047-1.2998V337.33301z"/>
		<path class="st13" d="M416.73047,334.41211h2.10059v1.41992c0.71973-0.91992,1.87988-1.63965,3.14062-1.63965v2.08008
			c-0.18066-0.04004-0.40039-0.05957-0.66016-0.05957c-0.88086,0-2.06055,0.59961-2.48047,1.28027v6.58105h-2.10059V334.41211z"/>
		<path class="st13" d="M427.9707,334.17188c2.90137,0,4.76172,2.2207,4.76172,5.26172v0.5h-7.46191
			c0.16016,1.45996,1.25977,2.66016,3.08105,2.66016c0.93945,0,2.05957-0.37988,2.74023-1.06055l0.95996,1.38086
			c-0.95996,0.91992-2.38086,1.40039-3.9209,1.40039c-2.90039,0-5.06055-2.02051-5.06055-5.08105
			C423.07031,336.43262,425.11035,334.17188,427.9707,334.17188z M425.25,338.45312h5.44141
			c-0.04004-1.14062-0.82031-2.56055-2.7207-2.56055C426.1709,335.89258,425.35059,337.27246,425.25,338.45312z"/>
		<path class="st13" d="M434.92969,341.29395c0.68066,0.7002,2.02051,1.36035,3.28125,1.36035
			c1.25977,0,1.90039-0.46094,1.90039-1.18066c0-0.83984-1.02051-1.14062-2.20117-1.40039
			c-1.66016-0.36035-3.64062-0.7998-3.64062-2.96094c0-1.58008,1.36035-2.94043,3.80078-2.94043
			c1.64062,0,2.88086,0.58008,3.76074,1.36035l-0.87988,1.48047c-0.58008-0.66016-1.66016-1.16016-2.86035-1.16016
			c-1.10059,0-1.80078,0.40039-1.80078,1.08008c0,0.74023,0.95996,1,2.10059,1.26074
			c1.68066,0.35938,3.74023,0.83984,3.74023,3.12012c0,1.7002-1.41992,3.00098-4.02051,3.00098
			c-1.64062,0-3.14062-0.52051-4.14062-1.50098L434.92969,341.29395z"/>
		<path class="st13" d="M444.36914,341.29395c0.68066,0.7002,2.02051,1.36035,3.28125,1.36035
			c1.25977,0,1.90039-0.46094,1.90039-1.18066c0-0.83984-1.02051-1.14062-2.20117-1.40039
			c-1.66016-0.36035-3.64062-0.7998-3.64062-2.96094c0-1.58008,1.36035-2.94043,3.80078-2.94043
			c1.64062,0,2.88086,0.58008,3.76074,1.36035l-0.87988,1.48047c-0.58008-0.66016-1.66016-1.16016-2.86035-1.16016
			c-1.10059,0-1.80078,0.40039-1.80078,1.08008c0,0.74023,0.95996,1,2.10059,1.26074
			c1.68066,0.35938,3.74023,0.83984,3.74023,3.12012c0,1.7002-1.41992,3.00098-4.02051,3.00098
			c-1.64062,0-3.14062-0.52051-4.14062-1.50098L444.36914,341.29395z"/>
		<path class="st13" d="M376.1416,357.41309c0-4.10156,3.06055-6.90137,6.90137-6.90137c2.80078,0,4.46094,1.39941,5.46094,3
			l-2,1.02051c-0.64062-1.10059-1.9209-1.94043-3.46094-1.94043c-2.54102,0-4.50098,2.02051-4.50098,4.82129
			s1.95996,4.82031,4.50098,4.82031c1.54004,0,2.82031-0.81934,3.46094-1.94043l2,1.02051
			c-1.02051,1.60059-2.66016,3.00098-5.46094,3.00098C379.20215,364.31445,376.1416,361.51367,376.1416,357.41309z"/>
		<path class="st13" d="M389.7207,359.2334c0-2.76074,1.90039-5.06152,4.96094-5.06152c3.10059,0,4.98145,2.30078,4.98145,5.06152
			c0,2.78027-1.88086,5.08105-4.98145,5.08105C391.62109,364.31445,389.7207,362.01367,389.7207,359.2334z M397.48242,359.2334
			c0-1.7002-1-3.20117-2.80078-3.20117c-1.78027,0-2.78027,1.50098-2.78027,3.20117c0,1.71973,1,3.2207,2.78027,3.2207
			C396.48242,362.4541,397.48242,360.95312,397.48242,359.2334z"/>
		<path class="st13" d="M408.30273,358.0332c0-1.50098-0.76074-2.00098-1.94043-2.00098c-1.08105,0-2.00098,0.64062-2.48047,1.30078
			v6.74121h-2.10059v-9.66211h2.10059v1.32031c0.63965-0.75977,1.87988-1.56055,3.40039-1.56055
			c2.08008,0,3.12012,1.12012,3.12012,3.10059v6.80176h-2.09961V358.0332z"/>
		<path class="st13" d="M413.54102,361.83398v-5.58105h-1.60059v-1.84082h1.60059v-2.64062h2.10059v2.64062h1.95996v1.84082
			h-1.95996v5.06055c0,0.66016,0.31934,1.14062,0.91992,1.14062c0.40039,0,0.78027-0.16016,0.94043-0.33984l0.5,1.58008
			c-0.37988,0.36035-1,0.62012-1.98047,0.62012C414.40137,364.31445,413.54102,363.43457,413.54102,361.83398z"/>
		<path class="st13" d="M419.50098,354.41211h2.10059v1.41992c0.71973-0.91992,1.87988-1.63965,3.14062-1.63965v2.08008
			c-0.18066-0.04004-0.40039-0.05957-0.66016-0.05957c-0.88086,0-2.06055,0.59961-2.48047,1.28027v6.58105h-2.10059V354.41211z"/>
		<path class="st13" d="M425.84082,359.2334c0-2.76074,1.90039-5.06152,4.96094-5.06152c3.10059,0,4.98047,2.30078,4.98047,5.06152
			c0,2.78027-1.87988,5.08105-4.98047,5.08105C427.74121,364.31445,425.84082,362.01367,425.84082,359.2334z M433.60254,359.2334
			c0-1.7002-1.00098-3.20117-2.80078-3.20117c-1.78027,0-2.78125,1.50098-2.78125,3.20117c0,1.71973,1.00098,3.2207,2.78125,3.2207
			C432.60156,362.4541,433.60254,360.95312,433.60254,359.2334z"/>
		<path class="st13" d="M437.90039,350.73145h2.10059v13.34277h-2.10059V350.73145z"/>
		<path class="st13" d="M442.7207,350.73145h2.10059v13.34277h-2.10059V350.73145z"/>
		<path class="st13" d="M451.84082,354.17188c2.90137,0,4.76172,2.2207,4.76172,5.26172v0.5h-7.46191
			c0.16016,1.45996,1.25977,2.66016,3.08105,2.66016c0.93945,0,2.05957-0.37988,2.74023-1.06055l0.95996,1.38086
			c-0.95996,0.91992-2.38086,1.40039-3.9209,1.40039c-2.90039,0-5.06055-2.02051-5.06055-5.08105
			C446.94043,356.43262,448.98047,354.17188,451.84082,354.17188z M449.12012,358.45312h5.44141
			c-0.04004-1.14062-0.82031-2.56055-2.7207-2.56055C450.04102,355.89258,449.2207,357.27246,449.12012,358.45312z"/>
		<path class="st13" d="M458.67969,354.41211h2.10059v1.41992c0.71973-0.91992,1.88086-1.63965,3.14062-1.63965v2.08008
			c-0.17969-0.04004-0.40039-0.05957-0.66016-0.05957c-0.87988,0-2.06055,0.59961-2.48047,1.28027v6.58105h-2.10059V354.41211z"/>
	</g>
	<g>
		<path class="st14" d="M459.08835,292.96478h0.63797v-1.42099h0.50464c0.33362,0,0.57294,0.03253,0.70886,0.11838
			c0.22308,0.13071,0.33688,0.41101,0.33688,0.82657v0.29135l0.01428,0.10858c0.00781,0.02408,0.00781,0.03381,0.00977,0.04553
			c0.00327,0.01755,0.00455,0.02277,0.01431,0.03058h0.59116l-0.02145-0.04034c-0.01758-0.02731-0.02734-0.08908-0.02863-0.18469
			c-0.00845-0.10208-0.00845-0.18924-0.00845-0.26987v-0.26926c0-0.18079-0.06763-0.36548-0.19769-0.56317
			c-0.13397-0.19055-0.3447-0.30371-0.62955-0.35379c0.22504-0.03772,0.40192-0.09753,0.52484-0.17038
			c0.24127-0.15216,0.35248-0.39929,0.35248-0.71536c0-0.45456-0.1795-0.76541-0.55798-0.9176
			c-0.20877-0.08585-0.53589-0.12943-0.98917-0.12943h-1.26227V292.96478z M460.90274,291.01639
			c-0.12808,0.05527-0.33167,0.08063-0.60675,0.08063h-0.56967v-1.31558h0.54367c0.35248,0,0.60806,0.05005,0.76672,0.14111
			c0.16193,0.09039,0.23999,0.26532,0.23999,0.5274C461.2767,290.72958,461.15509,290.91299,460.90274,291.01639
			 M462.75555,288.8443c-0.64905-0.64056-1.42554-0.95795-2.34314-0.95795c-0.8981,0-1.68176,0.31738-2.31583,0.95795
			c-0.64902,0.64252-0.96313,1.41965-0.96313,2.33206c0,0.9111,0.31088,1.6915,0.95145,2.33078
			c0.63602,0.64902,1.42096,0.97095,2.32751,0.97095c0.9176,0,1.69409-0.32193,2.34314-0.97095
			c0.63602-0.64252,0.96442-1.42618,0.96442-2.33078C463.71997,290.25745,463.39157,289.48682,462.75555,288.8443
			 M462.42062,289.17142c0.55536,0.54236,0.82721,1.21872,0.82721,2.00494c0,0.77844-0.27185,1.45999-0.82721,2.01471
			c-0.54694,0.55215-1.21872,0.83569-2.00821,0.83569c-0.78366,0-1.45154-0.28354-2.00562-0.83569
			c-0.54367-0.55472-0.8233-1.23627-0.8233-2.01471c0-0.78622,0.27963-1.46259,0.8233-2.00494
			c0.56189-0.56448,1.22717-0.84152,2.00562-0.84152C461.19864,288.3299,461.86719,288.60693,462.42062,289.17142"/>
		<g>
			<g>
				<path class="st15" d="M376.48779,277.25204c0.47018,0.81558,1.13309,1.45181,1.89777,1.88324l38.82358,22.41479l0.00119-0.00119
					c0.75742,0.44595,1.63846,0.70166,2.58008,0.70166s1.82388-0.25571,2.58008-0.70166l38.82477-22.41479
					c0.76468-0.43146,1.42517-1.06647,1.89658-1.88205c0.47144-0.81558,0.69077-1.70633,0.68228-2.58493v-44.82959l-0.00119-0.00122
					c0.00726-0.8774-0.2121-1.76933-0.68231-2.58492c-0.47141-0.8156-1.13431-1.45062-1.89777-1.88326l-38.82477-22.41479v-0.00121
					c-0.75623-0.44598-1.63724-0.70169-2.57889-0.70169c-0.9404,0-1.82144,0.25571-2.57764,0.70169v0.00121L378.388,225.36813
					c-0.76471,0.43263-1.42758,1.06766-1.89902,1.88326c-0.47018,0.81558-0.68954,1.70752-0.68228,2.58492l-0.00122,0.00122
					v44.82959c-0.00848,0.8786,0.21088,1.76935,0.68109,2.58493"/>
			</g>
			<g>
				<rect x="392.80194" y="235.31667" class="st16" width="34.113" height="34.113"/>
				<rect x="436.92917" y="231.3613" class="st17" width="9.84857" height="9.84857"/>
				<rect x="436.92917" y="247.32622" class="st17" width="9.84857" height="9.84857"/>
				<rect x="436.92917" y="263.29114" class="st17" width="9.84857" height="9.84857"/>
				<g>
					<line class="st17" x1="427.6886" y1="252.37315" x2="436.35059" y2="252.37315"/>
					<line class="st17" x1="427.2272" y1="256.44836" x2="437.06348" y2="263.93942"/>
					<line class="st17" x1="427.2272" y1="248.29796" x2="437.06348" y2="240.80688"/>
				</g>
			</g>
		</g>
	</g>
	<g>
		<path class="st18" d="M155,173.7045c0,2.75-2.25,5-5,5H35c-2.75,0-5-2.25-5-5v-50.00001c0-2.75,2.25-5,5-5h115c2.75,0,5,2.25,5,5
			V173.7045z"/>
		<path class="st19" d="M155,173.7045c0,2.75-2.25,5-5,5H35c-2.75,0-5-2.25-5-5v-50.00001c0-2.75,2.25-5,5-5h115c2.75,0,5,2.25,5,5
			V173.7045z"/>
	</g>
	<g>
		<g>
			<g>
				<path class="st20" d="M55.075,140.31697c-6.95,0-12.575,5.62498-12.575,12.575c0,6.95,5.625,12.57498,12.575,12.57498
					s12.575-5.62498,12.575-12.575C67.65,145.94196,62.025,140.31697,55.075,140.31697z M55.075,159.19196
					c-3.475,0-6.3-2.825-6.3-6.29999c0-3.47501,2.825-6.3,6.3-6.3s6.3,2.825,6.3,6.3
					C61.375,156.36696,58.55,159.19196,55.075,159.19196z"/>
			</g>
			<path class="st20" d="M77.175,157.11696c0-1,1.2-1.47501,1.9-0.77499c3.15,3.2,8.35,8.7,8.375,8.72499
				c0.075,0.075,0.15,0.2,0.45,0.3c0.125,0.05,0.325,0.05,0.55,0.05h5.675c1.025,0,1.325-1.175,0.85-1.77501l-9.4-9.62498l-0.5-0.5
				c-1.075-1.27501-0.95-1.77501,0.275-3.07501l7.45-8.325c0.475-0.59999,0.175-1.75-0.87499-1.75h-5.15c-0.2,0-0.35,0-0.5,0.05
				c-0.3,0.10001-0.425,0.2-0.5,0.3c-0.025,0.02499-4.15,4.47501-6.7,7.2c-0.7,0.75-1.95,0.25-1.95-0.77499v-14.27501
				c0-0.72499-0.6-1-1.075-1h-4.2c-0.725,0-1.075,0.47501-1.075,0.90001v31.64999c0,0.72499,0.6,0.92499,1.1,0.92499h4.2
				c0.65,0,1.075-0.47499,1.075-0.95v-0.325v-6.95H77.175z"/>
			<path class="st20" d="M111.47498,164.26695l-0.45-4.2c-0.05-0.575-0.6-0.97499-1.175-0.875
				c-0.325,0.05-0.65,0.07501-0.975,0.07501c-3.34999,0-6.075-2.625-6.27499-5.95001c0-0.09999,0-0.22499,0-0.34999v-5.15001
				c0-0.67499,0.5-1.22499,1.175-1.22499h5.62499c0.4,0,1-0.35001,1-1.075v-3.97501c0-0.77499-0.5-1.175-0.95-1.175h-5.675
				c-0.65,0-1.175-0.47499-1.2-1.125v-6.375c0-0.39999-0.3-1-1.075-1h-4.175c-0.525,0-1.025,0.32501-1.025,0.97501
				c0,0,0,20.375,0,20.47499c0.175,6.8,5.75,12.22501,12.57499,12.22501c0.575,0,1.125-0.05,1.675-0.125
				C111.14999,165.34195,111.54999,164.84195,111.47498,164.26695z"/>
		</g>
		<g>
			<path class="st20" d="M141.77498,158.99196c-3.55,0-4.09999-1.27499-4.09999-6.05c0-0.02499,0-0.02499,0-0.04999v-11.47501
				c0-0.39999-0.3-1.075-1.10001-1.075h-4.2c-0.52499,0-1.09999,0.425-1.09999,1.075v0.52501c-1.825-1.05-3.95-1.65001-6.2-1.65001
				c-6.95,0-12.575,5.625-12.575,12.575s5.625,12.575,12.575,12.575c3.125,0,5.97499-1.14999,8.175-3.02499
				c1.175,1.8,3.075,3,6.05,3.02499c0.5,0,3.2,0.10001,3.2-1.175v-4.47499
				C142.49998,159.41696,142.19998,158.99196,141.77498,158.99196z M125.09998,159.19196c-3.475,0-6.3-2.825-6.3-6.29999
				c0-3.47501,2.825-6.3,6.3-6.3c3.475,0,6.3,2.825,6.3,6.3C131.37498,156.36696,128.54999,159.19196,125.09998,159.19196z"/>
		</g>
	</g>
	<rect x="675.04584" y="50.00004" class="st21" width="60.76919" height="36.30282"/>
	<g>
		<path class="st22" d="M737.69104,56.48476l-5.31537-23.09c-0.25519-1.19064-1.10565-2.21119-2.21124-2.76399l-21.5166-10.24805
			C708.09503,20.12757,707.49969,20,706.90436,20s-1.23315,0.12757-1.78595,0.34018l-21.51666,10.29058
			c-1.10559,0.51028-1.91351,1.53083-2.21118,2.76399l-5.31537,23.09c-0.25513,1.23317,0.04254,2.50885,0.80792,3.48689
			l14.88306,18.49753C692.53162,79.4472,693.72223,80,694.95538,80h23.85541c1.23315,0,2.42383-0.5528,3.18921-1.53083
			l14.88306-18.49753C737.69104,58.99361,737.98865,57.71792,737.69104,56.48476z"/>
		<path class="st18" d="M728.4635,54.65627L728.4635,54.65627L728.4635,54.65627
			C728.42102,54.65627,728.42102,54.65627,728.4635,54.65627h-0.04248c-0.04254,0-0.08508,0-0.08508-0.04253
			c-0.08502,0-0.1701-0.04252-0.25513-0.04252c-0.29767-0.04252-0.5528-0.08504-0.80792-0.08504
			c-0.12756,0-0.25513,0-0.42523-0.04252h-0.04254c-0.89294-0.08504-1.61584-0.17009-2.2962-0.38271
			c-0.29767-0.12757-0.38275-0.29766-0.46777-0.46775c0-0.04252-0.04254-0.04252-0.04254-0.08504l0,0l-0.5528-0.17009
			c0.25513-1.95606,0.1701-3.99717-0.29767-5.99575c-0.46771-1.99858-1.2757-3.86959-2.38129-5.57051l0.42523-0.38271v-0.08504
			c0-0.21262,0.04254-0.42523,0.21265-0.63784c0.51025-0.46775,1.14813-0.85046,1.91351-1.31821l0,0
			c0.12756-0.08505,0.25513-0.12757,0.38269-0.21262c0.25513-0.12757,0.46777-0.25514,0.7229-0.42523
			c0.04254-0.04253,0.12756-0.08505,0.21265-0.17009c0.04248-0.04252,0.08502-0.04252,0.08502-0.08504l0,0
			c0.59534-0.51028,0.7229-1.36074,0.29767-1.91354c-0.21265-0.29766-0.59534-0.46775-0.97803-0.46775
			c-0.34021,0-0.63788,0.12757-0.93549,0.34018l0,0l0,0c-0.04254,0.04252-0.04254,0.04252-0.08508,0.08504
			c-0.08502,0.04253-0.12756,0.12757-0.21259,0.17009c-0.21265,0.21262-0.38275,0.38271-0.5528,0.59532
			c-0.08508,0.08504-0.1701,0.21262-0.29767,0.29766l0,0c-0.59534,0.63784-1.14813,1.14812-1.70093,1.53083
			c-0.12756,0.08504-0.25513,0.12757-0.38269,0.12757c-0.08508,0-0.1701,0-0.25519-0.04252h-0.08502l0,0l-0.51025,0.34018
			c-0.5528-0.59532-1.14813-1.10559-1.74347-1.61587c-2.55139-1.99858-5.65558-3.23175-8.88733-3.52941l-0.04248-0.5528
			c-0.04254-0.04252-0.04254-0.04252-0.08508-0.08504c-0.12756-0.12757-0.29767-0.25514-0.34015-0.5528
			c-0.04254-0.68037,0.04248-1.44578,0.12756-2.29624v-0.04252c0-0.12757,0.04254-0.29766,0.08502-0.42523
			c0.04254-0.25514,0.08508-0.51028,0.12756-0.80794v-0.25514V29.2275l0,0l0,0c0-0.76542-0.59528-1.40326-1.31818-1.40326
			c-0.34021,0-0.68036,0.17009-0.93555,0.42523c-0.25513,0.25514-0.38269,0.59532-0.38269,0.97803l0,0l0,0v0.08505v0.25514
			c0,0.29766,0.04254,0.5528,0.12756,0.80794c0.04254,0.12757,0.04254,0.25514,0.08508,0.42523v0.04252
			c0.08502,0.85046,0.21259,1.61587,0.12756,2.29624c-0.04254,0.29766-0.21265,0.42523-0.34021,0.5528
			c-0.04254,0.04252-0.04254,0.04252-0.08502,0.08504l0,0l-0.04254,0.5528c-0.76538,0.08505-1.53082,0.17009-2.29626,0.34019
			c-3.27423,0.72289-6.16583,2.38129-8.41956,4.76258l-0.42517-0.29766h-0.08508c-0.08502,0-0.1701,0.04252-0.25513,0.04252
			c-0.12756,0-0.25513-0.04252-0.38269-0.12757c-0.5528-0.38271-1.10559-0.9355-1.70093-1.57335l0,0
			c-0.08508-0.08505-0.1701-0.21262-0.29767-0.29766c-0.1701-0.21262-0.34021-0.38271-0.5528-0.59532
			c-0.04254-0.04252-0.12756-0.08505-0.21265-0.17009c-0.04248-0.04252-0.08502-0.04252-0.08502-0.08504l0,0
			c-0.25513-0.21262-0.59534-0.34018-0.93549-0.34018c-0.38275,0-0.76544,0.17009-0.97803,0.46775
			c-0.42523,0.5528-0.29767,1.40326,0.29767,1.91354l0,0l0,0c0.04248,0,0.04248,0.04253,0.08502,0.04253
			c0.08502,0.04252,0.12756,0.12757,0.21259,0.17009c0.25519,0.17009,0.46777,0.29766,0.7229,0.42523
			c0.12756,0.04252,0.25513,0.12757,0.38275,0.21261l0,0c0.76538,0.46775,1.40326,0.85046,1.91351,1.31821
			c0.21259,0.21262,0.21259,0.42523,0.21259,0.63785v0.08504l0,0l0.42523,0.38271c-0.08502,0.12757-0.17004,0.21262-0.21259,0.34019
			c-2.12616,3.35932-2.93408,7.31396-2.38129,11.22608l-0.5528,0.17009c0,0.04252-0.04254,0.04252-0.04254,0.08504
			c-0.08502,0.17009-0.21259,0.34019-0.46777,0.46775c-0.63782,0.21262-1.40326,0.29766-2.2962,0.38271h-0.04254
			c-0.12756,0-0.29767,0-0.42523,0.04253c-0.25513,0-0.51025,0.04252-0.80792,0.08504c-0.08508,0-0.1701,0.04252-0.25513,0.04252
			c-0.04254,0-0.08508,0-0.12756,0.04252l0,0l0,0c-0.76544,0.17009-1.23322,0.89298-1.10565,1.57335
			c0.12762,0.59532,0.68042,0.97803,1.36078,0.97803c0.12756,0,0.21259,0,0.34015-0.04252l0,0l0,0
			c0.04254,0,0.08508,0,0.08508-0.04252c0.08502,0,0.1701-0.04253,0.25513-0.04253c0.29767-0.08504,0.51025-0.17009,0.76538-0.29766
			c0.12762-0.04252,0.25519-0.12757,0.38275-0.17009h0.04248c0.80798-0.29766,1.53088-0.5528,2.21124-0.63784h0.08502
			c0.25513,0,0.42523,0.12757,0.5528,0.21261c0.04254,0,0.04254,0.04253,0.08508,0.04253l0,0l0.59528-0.08505
			c1.02057,3.14671,2.97662,5.95323,5.57056,7.99433c0.59528,0.46775,1.19061,0.85046,1.82849,1.23317l-0.25519,0.5528
			c0,0.04253,0.04254,0.04253,0.04254,0.08505c0.08502,0.17009,0.1701,0.38271,0.08502,0.68037
			c-0.25513,0.63784-0.63782,1.27569-1.10559,1.99858v0.04252c-0.08502,0.12757-0.17004,0.21262-0.25513,0.34019
			c-0.1701,0.21262-0.29767,0.42523-0.46777,0.68037c-0.04248,0.04252-0.08502,0.12756-0.12756,0.21261
			c0,0.04253-0.04248,0.08505-0.04248,0.08505l0,0l0,0c-0.34021,0.72289-0.08508,1.53082,0.5528,1.82848
			c0.1701,0.08504,0.34015,0.12757,0.51025,0.12757c0.51025,0,1.02057-0.34019,1.2757-0.80794l0,0l0,0
			c0-0.04252,0.04254-0.08504,0.04254-0.08504c0.04248-0.08504,0.08502-0.17009,0.12756-0.21262
			c0.12756-0.29766,0.1701-0.51028,0.25513-0.76541c0.04254-0.12757,0.08502-0.25514,0.12756-0.38271l0,0
			c0.29767-0.85046,0.51025-1.53084,0.89301-2.12616c0.17004-0.25513,0.38269-0.29766,0.5528-0.38271
			c0.04248,0,0.04248,0,0.08502-0.04252l0,0l0.29767-0.5528c1.87103,0.72289,3.91211,1.1056,5.95325,1.1056
			c1.23315,0,2.50885-0.12757,3.69946-0.42523c0.76544-0.17009,1.48834-0.38271,2.21118-0.63784l0.25519,0.46775
			c0.04248,0,0.04248,0,0.08502,0.04253c0.21265,0.04252,0.38269,0.12756,0.5528,0.38271
			c0.34021,0.59532,0.59534,1.31821,0.89301,2.12615v0.04253c0.04248,0.12756,0.08502,0.25513,0.12756,0.38271
			c0.08502,0.25513,0.12756,0.51028,0.25513,0.76541c0.04254,0.08504,0.08502,0.12757,0.12756,0.21262
			c0,0.04253,0.04254,0.08504,0.04254,0.08504l0,0l0,0c0.25513,0.51028,0.76538,0.80794,1.2757,0.80794
			c0.17004,0,0.34015-0.04253,0.51025-0.12757c0.29767-0.17009,0.5528-0.42522,0.63782-0.76541
			c0.08508-0.34019,0.08508-0.72289-0.08502-1.06307l0,0l0,0c0-0.04253-0.04254-0.04253-0.04254-0.08505
			c-0.04248-0.08504-0.08502-0.17009-0.12756-0.21261c-0.12756-0.25514-0.29767-0.46776-0.46771-0.68037
			c-0.08508-0.12757-0.1701-0.21262-0.25519-0.34019V68.5613c-0.46771-0.72289-0.89294-1.36074-1.10559-1.99858
			c-0.08502-0.29766,0-0.46775,0.04254-0.68037c0-0.04253,0.04254-0.04253,0.04254-0.08505l0,0l-0.21265-0.51028
			c2.25372-1.31821,4.1673-3.18922,5.61304-5.48547c0.76544-1.19064,1.36078-2.50885,1.78595-3.82707l0.51031,0.08504
			c0.04254,0,0.04254-0.04252,0.08502-0.04252c0.1701-0.08504,0.29767-0.21261,0.5528-0.21261h0.08508
			c0.68036,0.08504,1.40326,0.34018,2.21118,0.63784h0.04254c0.12756,0.04252,0.25513,0.12757,0.38269,0.17009
			c0.25513,0.12757,0.46777,0.21262,0.76538,0.29766c0.08508,0,0.1701,0.04252,0.25519,0.04252c0.04248,0,0.08502,0,0.12756,0.04253
			l0,0c0.12756,0.04252,0.21259,0.04252,0.34015,0.04252c0.63788,0,1.19067-0.42523,1.36078-0.97803
			C729.69672,55.54926,729.22894,54.86889,728.4635,54.65627L728.4635,54.65627z M708.77539,52.57264l-1.87103,0.89299
			l-1.87103-0.89299l-0.46771-1.99858l1.2757-1.61588h2.08362l1.2757,1.61588L708.77539,52.57264L708.77539,52.57264z
			 M719.8739,48.15025c0.34015,1.44578,0.42523,2.89156,0.29761,4.29482l-6.50598-1.87101
			c-0.59534-0.17009-0.93549-0.76542-0.80792-1.36074c0.04248-0.17009,0.12756-0.34018,0.25513-0.46775l5.14526-4.63501
			C718.9809,45.3012,719.53369,46.66194,719.8739,48.15025L719.8739,48.15025z M716.21692,41.55918l-5.57056,3.95464
			c-0.46771,0.29766-1.10559,0.21262-1.48828-0.25514c-0.12756-0.12757-0.1701-0.29766-0.21259-0.46775l-0.38275-6.93125
			C711.49683,38.19986,714.17578,39.51807,716.21692,41.55918L716.21692,41.55918z M703.88525,38.07229
			c0.46771-0.08504,0.89294-0.17009,1.36072-0.25514l-0.38269,6.80368c-0.04254,0.59532-0.51031,1.1056-1.14813,1.1056
			c-0.1701,0-0.38269-0.04253-0.51031-0.12757l-5.65552-4.03969C699.29272,39.81573,701.46143,38.62509,703.88525,38.07229
			L703.88525,38.07229z M695.50818,44.11056l5.06024,4.50744c0.46777,0.38271,0.51031,1.1056,0.12756,1.57335
			c-0.12756,0.17009-0.29767,0.29766-0.51025,0.34018l-6.59106,1.91354C693.33954,49.5535,693.97736,46.61942,695.50818,44.11056
			L695.50818,44.11056z M694.36011,55.6343l6.76111-1.14812c0.5528-0.04252,1.06311,0.34018,1.19067,0.89298
			c0.04254,0.25514,0.04254,0.46775-0.04254,0.68037l0,0l-2.59387,6.25089C697.29419,60.77959,695.38062,58.44082,694.36011,55.6343
			L694.36011,55.6343z M709.88098,64.09638c-0.97803,0.21262-1.95605,0.34019-2.97662,0.34019
			c-1.48828,0-2.93408-0.25514-4.2948-0.68037l3.35931-6.08079c0.34015-0.38271,0.89294-0.5528,1.36072-0.29766
			c0.21265,0.12757,0.38269,0.29766,0.51025,0.46775l0,0l3.27429,5.9107C710.73145,63.88377,710.30621,63.96881,709.88098,64.09638
			L709.88098,64.09638z M718.17297,58.18568c-1.06311,1.70092-2.46637,3.06166-4.08221,4.12473l-2.67896-6.42098
			c-0.12756-0.51028,0.08502-1.06308,0.59534-1.31821c0.17004-0.08504,0.38269-0.12757,0.59528-0.12757l6.80371,1.14812
			C719.151,56.52728,718.72577,57.37775,718.17297,58.18568L718.17297,58.18568z"/>
	</g>
	<g>
		<rect x="611.30261" y="141.06668" class="st12" width="191.1846" height="15.6839"/>
		<path class="st13" d="M627.02344,151.94629c-0.48535,0.72021-1.42188,1.36865-2.53809,1.36865
			c-1.54883,0-2.26855-0.82861-2.26855-2.34082v-6.57227h1.7998v5.94189c0,1.0083,0.46875,1.38623,1.24316,1.38623
			c0.75586,0,1.42188-0.57617,1.76367-1.18799v-6.14014h1.80078v8.69678h-1.80078V151.94629z"/>
		<path class="st13" d="M635.75293,147.1748c0-1.02637-0.46777-1.4043-1.24219-1.4043s-1.44043,0.59424-1.76465,1.20654v6.12158
			h-1.7998v-8.69678h1.7998v1.17041c0.46875-0.70215,1.44043-1.38623,2.52148-1.38623c1.56641,0,2.28613,0.86426,2.28613,2.3584
			v6.5542h-1.80078V147.1748z"/>
		<path class="st13" d="M639.44141,141.84521c0-0.62988,0.52246-1.13428,1.13379-1.13428c0.6123,0,1.11719,0.50439,1.11719,1.13428
			c0,0.6123-0.50488,1.11621-1.11719,1.11621C639.96387,142.96143,639.44141,142.45752,639.44141,141.84521z M639.67578,144.40186
			h1.7998v8.69678h-1.7998V144.40186z"/>
		<path class="st13" d="M643.92285,151.15381v-5.18555h-1.13379v-1.56641h1.13379v-2.37646h1.80078v2.37646h1.44043v1.56641
			h-1.44043v4.80762c0,0.59424,0.19824,0.9541,0.66602,0.9541c0.28809,0,0.55859-0.12598,0.68457-0.28809l0.43262,1.35059
			c-0.32422,0.32422-0.8291,0.52246-1.56738,0.52246C644.57129,153.31494,643.92285,152.57666,643.92285,151.15381z"/>
		<path class="st13" d="M648.1709,147.96729h3.7627v1.54834h-3.7627V147.96729z"/>
		<path class="st13" d="M658.50391,151.94629c-0.52148,0.86426-1.36816,1.36865-2.23242,1.36865
			c-1.94434,0-3.16895-1.76465-3.16895-4.55566c0-2.75488,1.20605-4.57324,3.16895-4.57324
			c0.84668,0,1.71094,0.4502,2.23242,1.38623v-4.4834h1.80078v12.00977h-1.80078V151.94629z M658.50391,146.95898
			c-0.30566-0.64844-1.00781-1.18848-1.69238-1.18848c-1.24219,0-1.85449,1.29639-1.85449,2.98877
			c0,1.65674,0.6123,2.9707,1.85449,2.9707c0.68457,0,1.38672-0.54004,1.69238-1.18799V146.95898z"/>
		<path class="st13" d="M665.72168,144.18604c2.3584,0,3.61914,1.99854,3.61914,4.62744v0.52197h-5.52832
			c0.07227,1.42236,0.86426,2.50293,2.26855,2.50293c0.68457,0,1.45898-0.34229,1.96289-0.93652l0.86426,1.08057
			c-0.73828,0.84619-1.83691,1.33252-3.00684,1.33252c-2.39453,0-3.90723-1.87305-3.90723-4.57373
			C661.99414,146.2207,663.39844,144.18604,665.72168,144.18604z M663.79492,148.05713h3.79883
			c-0.01758-1.08008-0.50391-2.4126-1.89062-2.4126C664.35254,145.64453,663.84863,147.0127,663.79492,148.05713z"/>
		<path class="st13" d="M680.0332,147.04883c0-0.81006-0.32422-1.27832-1.08008-1.27832c-0.7207,0-1.36816,0.63037-1.65625,1.20654
			v6.12158h-1.80078v-6.0498c0-0.79248-0.32422-1.27832-1.08008-1.27832c-0.7207,0-1.35059,0.63037-1.65723,1.20654v6.12158h-1.7998
			v-8.69678h1.7998v1.17041c0.34277-0.61182,1.33301-1.38623,2.41309-1.38623c1.09863,0,1.83691,0.55811,2.03418,1.53027
			c0.41406-0.77393,1.42285-1.53027,2.50293-1.53027c1.31445,0,2.125,0.70215,2.125,2.28662v6.62598h-1.80078V147.04883z"/>
		<path class="st13" d="M683.52246,148.74121c0-2.44873,1.2959-4.55518,3.7627-4.55518s3.7627,2.10645,3.7627,4.55518
			s-1.2959,4.57373-3.7627,4.57373S683.52246,151.18994,683.52246,148.74121z M689.19336,148.74121
			c0-1.56641-0.59375-2.9707-1.9082-2.9707s-1.9082,1.4043-1.9082,2.9707s0.59375,2.98877,1.9082,2.98877
			S689.19336,150.30762,689.19336,148.74121z"/>
		<path class="st13" d="M693.74609,150.86572c0.66602,0,1.20703,0.55859,1.20703,1.20654c0,0.6665-0.54102,1.22461-1.20703,1.22461
			c-0.64844,0-1.20605-0.55811-1.20605-1.22461C692.54004,151.42432,693.09766,150.86572,693.74609,150.86572z"/>
		<path class="st13" d="M706.06055,147.04883c0-0.81006-0.32422-1.27832-1.08008-1.27832c-0.7207,0-1.36816,0.63037-1.65625,1.20654
			v6.12158h-1.80078v-6.0498c0-0.79248-0.32422-1.27832-1.08008-1.27832c-0.7207,0-1.35059,0.63037-1.65723,1.20654v6.12158h-1.7998
			v-8.69678h1.7998v1.17041c0.34277-0.61182,1.33301-1.38623,2.41309-1.38623c1.09863,0,1.83691,0.55811,2.03418,1.53027
			c0.41406-0.77393,1.42285-1.53027,2.50293-1.53027c1.31445,0,2.125,0.70215,2.125,2.28662v6.62598h-1.80078V147.04883z"/>
		<path class="st13" d="M714.48242,152.21631c-0.52148,0.72021-1.4043,1.09863-2.28613,1.09863
			c-1.4043,0-2.66504-1.04443-2.66504-2.89893c0-1.87256,1.26074-2.82715,2.66504-2.82715
			c0.88184,0,1.78223,0.34229,2.28613,1.04443v-1.26025c0-1.04443-0.61133-1.65674-1.69238-1.65674
			c-0.77344,0-1.49414,0.30615-2.16016,0.99023l-0.70215-1.26025c0.88184-0.88232,2.07031-1.26025,3.18652-1.26025
			c1.81836,0,3.15137,0.84619,3.15137,2.9707v5.94189h-1.7832V152.21631z M714.48242,149.80371
			c-0.3418-0.6123-0.99023-0.97217-1.6377-0.97217c-0.93652,0-1.5127,0.68408-1.5127,1.62012
			c0,0.93652,0.57617,1.62061,1.5127,1.62061c0.64746,0,1.2959-0.35986,1.6377-0.9541V149.80371z"/>
		<path class="st13" d="M718.3877,144.40186h1.7998v1.27832c0.50488-0.84619,1.42285-1.47607,2.39551-1.47607v1.78223
			c-0.14453-0.03564-0.30664-0.05371-0.46875-0.05371c-0.73828,0-1.56641,0.55811-1.92676,1.20605v5.95996h-1.7998V144.40186z"/>
		<path class="st13" d="M726.77637,149.46143l-1.04492,1.4043v2.23291h-1.7998v-12.00977h1.7998v7.58057l3.06152-4.26758h2.08789
			L728,148.30908l2.93555,4.78955h-2.10645L726.77637,149.46143z"/>
		<path class="st13" d="M735.12793,144.18604c2.35938,0,3.61914,1.99854,3.61914,4.62744v0.52197h-5.52734
			c0.07227,1.42236,0.86426,2.50293,2.26855,2.50293c0.68457,0,1.45898-0.34229,1.96289-0.93652l0.86426,1.08057
			c-0.73828,0.84619-1.83691,1.33252-3.00684,1.33252c-2.39551,0-3.90723-1.87305-3.90723-4.57373
			C731.40137,146.2207,732.80566,144.18604,735.12793,144.18604z M733.20215,148.05713h3.79883
			c-0.01855-1.08008-0.50391-2.4126-1.89062-2.4126C733.75977,145.64453,733.25586,147.0127,733.20215,148.05713z"/>
		<path class="st13" d="M740.68945,151.15381v-5.18555h-1.13477v-1.56641h1.13477v-2.37646h1.7998v2.37646h1.44043v1.56641h-1.44043
			v4.80762c0,0.59424,0.19824,0.9541,0.66699,0.9541c0.28809,0,0.55762-0.12598,0.68359-0.28809l0.43262,1.35059
			c-0.32422,0.32422-0.82812,0.52246-1.56641,0.52246C741.33691,153.31494,740.68945,152.57666,740.68945,151.15381z"/>
		<path class="st13" d="M745.22461,141.84521c0-0.62988,0.52246-1.13428,1.13477-1.13428s1.11621,0.50439,1.11621,1.13428
			c0,0.6123-0.50391,1.11621-1.11621,1.11621S745.22461,142.45752,745.22461,141.84521z M745.45898,144.40186h1.80078v8.69678
			h-1.80078V144.40186z"/>
		<path class="st13" d="M754.19043,147.1748c0-1.02637-0.46875-1.4043-1.24316-1.4043c-0.77344,0-1.44043,0.59424-1.76367,1.20654
			v6.12158h-1.80078v-8.69678h1.80078v1.17041c0.46777-0.70215,1.44043-1.38623,2.52051-1.38623
			c1.56641,0,2.28613,0.86426,2.28613,2.3584v6.5542h-1.7998V147.1748z"/>
		<path class="st13" d="M758.77832,154.14307c0.59375,0.64795,1.35059,0.97217,2.25098,0.97217
			c1.08008,0,2.05273-0.59424,2.05273-2.17871v-1.24219c-0.52246,0.88232-1.36914,1.42236-2.2334,1.42236
			c-1.94434,0-3.16895-1.6748-3.16895-4.46533c0-2.75488,1.20703-4.46533,3.16895-4.46533c0.84668,0,1.69238,0.4502,2.2334,1.38623
			v-1.17041h1.78223v8.39062c0,3.00684-1.87305,3.83496-3.74512,3.83496c-1.24219,0-2.21484-0.28809-3.0791-1.09814
			L758.77832,154.14307z M763.08203,146.95898c-0.30664-0.64844-1.00879-1.18848-1.69336-1.18848
			c-1.24219,0-1.85449,1.20654-1.85449,2.88086c0,1.65625,0.6123,2.86279,1.85449,2.86279
			c0.68457,0,1.38672-0.54004,1.69336-1.18848V146.95898z"/>
		<path class="st13" d="M768.10254,150.86572c0.66602,0,1.20605,0.55859,1.20605,1.20654c0,0.6665-0.54004,1.22461-1.20605,1.22461
			c-0.64844,0-1.20605-0.55811-1.20605-1.22461C766.89648,151.42432,767.4541,150.86572,768.10254,150.86572z"/>
		<path class="st13" d="M776.14941,147.1748c0-1.02637-0.46875-1.4043-1.24316-1.4043c-0.77344,0-1.44043,0.59424-1.76367,1.20654
			v6.12158h-1.80078v-8.69678h1.80078v1.17041c0.46777-0.70215,1.44043-1.38623,2.52051-1.38623
			c1.56641,0,2.28613,0.86426,2.28613,2.3584v6.5542h-1.7998V147.1748z"/>
		<path class="st13" d="M783.36621,144.18604c2.3584,0,3.61914,1.99854,3.61914,4.62744v0.52197h-5.52832
			c0.07227,1.42236,0.86523,2.50293,2.26953,2.50293c0.68359,0,1.45801-0.34229,1.96191-0.93652l0.86426,1.08057
			c-0.73828,0.84619-1.83594,1.33252-3.00684,1.33252c-2.39453,0-3.90723-1.87305-3.90723-4.57373
			C779.63867,146.2207,781.04297,144.18604,783.36621,144.18604z M781.43945,148.05713h3.79883
			c-0.01758-1.08008-0.50391-2.4126-1.89062-2.4126C781.99805,145.64453,781.49316,147.0127,781.43945,148.05713z"/>
		<path class="st13" d="M788.92773,151.15381v-5.18555h-1.13477v-1.56641h1.13477v-2.37646h1.7998v2.37646h1.44043v1.56641h-1.44043
			v4.80762c0,0.59424,0.19824,0.9541,0.66699,0.9541c0.28809,0,0.55762-0.12598,0.68359-0.28809l0.43262,1.35059
			c-0.32422,0.32422-0.82812,0.52246-1.56641,0.52246C789.5752,153.31494,788.92773,152.57666,788.92773,151.15381z"/>
	</g>
	<g>
		<rect x="611.30261" y="348.17627" class="st12" width="191.1846" height="15.6839"/>
		<path class="st13" d="M620.61523,359.05566c-0.48535,0.72021-1.42188,1.36865-2.53809,1.36865
			c-1.54883,0-2.26855-0.82861-2.26855-2.34082v-6.57227h1.7998v5.94189c0,1.0083,0.46875,1.38623,1.24316,1.38623
			c0.75586,0,1.42188-0.57617,1.76367-1.18799v-6.14014h1.80078v8.69678h-1.80078V359.05566z"/>
		<path class="st13" d="M629.34473,354.28418c0-1.02637-0.46777-1.4043-1.24219-1.4043s-1.44043,0.59424-1.76465,1.20654v6.12158
			h-1.7998v-8.69678h1.7998v1.17041c0.46875-0.70215,1.44043-1.38623,2.52148-1.38623c1.56641,0,2.28613,0.86426,2.28613,2.3584
			v6.5542h-1.80078V354.28418z"/>
		<path class="st13" d="M633.0332,348.95459c0-0.62988,0.52246-1.13428,1.13379-1.13428c0.6123,0,1.11719,0.50439,1.11719,1.13428
			c0,0.6123-0.50488,1.11621-1.11719,1.11621C633.55566,350.0708,633.0332,349.56689,633.0332,348.95459z M633.26758,351.51123
			h1.7998v8.69678h-1.7998V351.51123z"/>
		<path class="st13" d="M637.51465,358.26318v-5.18555h-1.13379v-1.56641h1.13379v-2.37646h1.80078v2.37646h1.44043v1.56641
			h-1.44043v4.80762c0,0.59424,0.19824,0.9541,0.66602,0.9541c0.28809,0,0.55859-0.12598,0.68457-0.28809l0.43262,1.35059
			c-0.32422,0.32422-0.8291,0.52246-1.56738,0.52246C638.16309,360.42432,637.51465,359.68604,637.51465,358.26318z"/>
		<path class="st13" d="M641.7627,355.07666h3.7627v1.54834h-3.7627V355.07666z"/>
		<path class="st13" d="M652.0957,359.05566c-0.52148,0.86426-1.36816,1.36865-2.23242,1.36865
			c-1.94434,0-3.16895-1.76465-3.16895-4.55566c0-2.75488,1.20605-4.57324,3.16895-4.57324
			c0.84668,0,1.71094,0.4502,2.23242,1.38623v-4.4834h1.80078v12.00977h-1.80078V359.05566z M652.0957,354.06836
			c-0.30566-0.64844-1.00781-1.18848-1.69238-1.18848c-1.24219,0-1.85449,1.29639-1.85449,2.98877
			c0,1.65674,0.6123,2.9707,1.85449,2.9707c0.68457,0,1.38672-0.54004,1.69238-1.18799V354.06836z"/>
		<path class="st13" d="M659.31348,351.29541c2.3584,0,3.61914,1.99854,3.61914,4.62744v0.52197h-5.52832
			c0.07227,1.42236,0.86426,2.50293,2.26855,2.50293c0.68457,0,1.45898-0.34229,1.96289-0.93652L662.5,359.0918
			c-0.73828,0.84619-1.83691,1.33252-3.00684,1.33252c-2.39453,0-3.90723-1.87305-3.90723-4.57373
			C655.58594,353.33008,656.99023,351.29541,659.31348,351.29541z M657.38672,355.1665h3.79883
			c-0.01758-1.08008-0.50391-2.4126-1.89062-2.4126C657.94434,352.75391,657.44043,354.12207,657.38672,355.1665z"/>
		<path class="st13" d="M673.625,354.1582c0-0.81006-0.32422-1.27832-1.08008-1.27832c-0.7207,0-1.36816,0.63037-1.65625,1.20654
			v6.12158h-1.80078v-6.0498c0-0.79248-0.32422-1.27832-1.08008-1.27832c-0.7207,0-1.35059,0.63037-1.65723,1.20654v6.12158h-1.7998
			v-8.69678h1.7998v1.17041c0.34277-0.61182,1.33301-1.38623,2.41309-1.38623c1.09863,0,1.83691,0.55811,2.03418,1.53027
			c0.41406-0.77393,1.42285-1.53027,2.50293-1.53027c1.31445,0,2.125,0.70215,2.125,2.28662v6.62598H673.625V354.1582z"/>
		<path class="st13" d="M677.11426,355.85059c0-2.44873,1.2959-4.55518,3.7627-4.55518s3.7627,2.10645,3.7627,4.55518
			s-1.2959,4.57373-3.7627,4.57373S677.11426,358.29932,677.11426,355.85059z M682.78516,355.85059
			c0-1.56641-0.59375-2.9707-1.9082-2.9707s-1.9082,1.4043-1.9082,2.9707s0.59375,2.98877,1.9082,2.98877
			S682.78516,357.41699,682.78516,355.85059z"/>
		<path class="st13" d="M687.33789,357.9751c0.66602,0,1.20703,0.55859,1.20703,1.20654c0,0.6665-0.54102,1.22461-1.20703,1.22461
			c-0.64844,0-1.20605-0.55811-1.20605-1.22461C686.13184,358.53369,686.68945,357.9751,687.33789,357.9751z"/>
		<path class="st13" d="M693.76465,351.29541c2.3584,0,3.61914,1.99854,3.61914,4.62744v0.52197h-5.52734
			c0.07227,1.42236,0.86426,2.50293,2.26855,2.50293c0.68457,0,1.45801-0.34229,1.96289-0.93652l0.86426,1.08057
			c-0.73828,0.84619-1.83691,1.33252-3.00684,1.33252c-2.39551,0-3.90723-1.87305-3.90723-4.57373
			C690.03809,353.33008,691.44238,351.29541,693.76465,351.29541z M691.83789,355.1665h3.7998
			c-0.01855-1.08008-0.50488-2.4126-1.89062-2.4126C692.39648,352.75391,691.89258,354.12207,691.83789,355.1665z"/>
		<path class="st13" d="M703.80859,354.28418c0-1.02637-0.46777-1.4043-1.24219-1.4043s-1.44043,0.59424-1.76465,1.20654v6.12158
			h-1.7998v-8.69678h1.7998v1.17041c0.46875-0.70215,1.44043-1.38623,2.52148-1.38623c1.56641,0,2.28613,0.86426,2.28613,2.3584
			v6.5542h-1.80078V354.28418z"/>
		<path class="st13" d="M708.39746,361.25244c0.59375,0.64795,1.35059,0.97217,2.25,0.97217
			c1.08105,0,2.05273-0.59424,2.05273-2.17871v-1.24219c-0.52148,0.88232-1.36816,1.42236-2.23242,1.42236
			c-1.94434,0-3.16895-1.6748-3.16895-4.46533c0-2.75488,1.20605-4.46533,3.16895-4.46533c0.84668,0,1.69238,0.4502,2.23242,1.38623
			v-1.17041h1.7832v8.39062c0,3.00684-1.87305,3.83496-3.74512,3.83496c-1.24316,0-2.21484-0.28809-3.0791-1.09814
			L708.39746,361.25244z M712.7002,354.06836c-0.30566-0.64844-1.00781-1.18848-1.69238-1.18848
			c-1.24219,0-1.85449,1.20654-1.85449,2.88086c0,1.65625,0.6123,2.86279,1.85449,2.86279
			c0.68457,0,1.38672-0.54004,1.69238-1.18848V354.06836z"/>
		<path class="st13" d="M716.37109,348.95459c0-0.62988,0.52246-1.13428,1.13379-1.13428c0.6123,0,1.11719,0.50439,1.11719,1.13428
			c0,0.6123-0.50488,1.11621-1.11719,1.11621C716.89355,350.0708,716.37109,349.56689,716.37109,348.95459z M716.60547,351.51123
			h1.7998v8.69678h-1.7998V351.51123z"/>
		<path class="st13" d="M725.33594,354.28418c0-1.02637-0.46777-1.4043-1.24219-1.4043s-1.44043,0.59424-1.76465,1.20654v6.12158
			h-1.7998v-8.69678h1.7998v1.17041c0.46875-0.70215,1.44043-1.38623,2.52148-1.38623c1.56641,0,2.28613,0.86426,2.28613,2.3584
			v6.5542h-1.80078V354.28418z"/>
		<path class="st13" d="M732.55371,351.29541c2.3584,0,3.61914,1.99854,3.61914,4.62744v0.52197h-5.52832
			c0.07227,1.42236,0.86426,2.50293,2.26855,2.50293c0.68457,0,1.45898-0.34229,1.96289-0.93652l0.86426,1.08057
			c-0.73828,0.84619-1.83594,1.33252-3.00684,1.33252c-2.39453,0-3.90723-1.87305-3.90723-4.57373
			C728.82617,353.33008,730.23047,351.29541,732.55371,351.29541z M730.62695,355.1665h3.79883
			c-0.01758-1.08008-0.50391-2.4126-1.89062-2.4126C731.18457,352.75391,730.68066,354.12207,730.62695,355.1665z"/>
		<path class="st13" d="M741.08594,351.29541c2.3584,0,3.61914,1.99854,3.61914,4.62744v0.52197h-5.52734
			c0.07129,1.42236,0.86328,2.50293,2.26855,2.50293c0.68359,0,1.45801-0.34229,1.96191-0.93652l0.86426,1.08057
			c-0.73828,0.84619-1.83594,1.33252-3.00684,1.33252c-2.39453,0-3.90723-1.87305-3.90723-4.57373
			C737.3584,353.33008,738.7627,351.29541,741.08594,351.29541z M739.15918,355.1665h3.79883
			c-0.01758-1.08008-0.50391-2.4126-1.89062-2.4126C739.71777,352.75391,739.21289,354.12207,739.15918,355.1665z"/>
		<path class="st13" d="M746.32324,351.51123h1.80078v1.27832c0.50391-0.84619,1.42188-1.47607,2.39453-1.47607v1.78223
			c-0.14453-0.03564-0.30664-0.05371-0.46875-0.05371c-0.73828,0-1.56641,0.55811-1.92578,1.20605v5.95996h-1.80078V351.51123z"/>
		<path class="st13" d="M751.63281,348.95459c0-0.62988,0.52246-1.13428,1.13477-1.13428s1.11621,0.50439,1.11621,1.13428
			c0,0.6123-0.50391,1.11621-1.11621,1.11621S751.63281,349.56689,751.63281,348.95459z M751.86719,351.51123h1.80078v8.69678
			h-1.80078V351.51123z"/>
		<path class="st13" d="M760.59863,354.28418c0-1.02637-0.46875-1.4043-1.24316-1.4043c-0.77344,0-1.44043,0.59424-1.76367,1.20654
			v6.12158h-1.80078v-8.69678h1.80078v1.17041c0.46777-0.70215,1.44043-1.38623,2.52051-1.38623
			c1.56641,0,2.28613,0.86426,2.28613,2.3584v6.5542h-1.7998V354.28418z"/>
		<path class="st13" d="M765.18652,361.25244c0.59375,0.64795,1.35059,0.97217,2.25098,0.97217
			c1.08008,0,2.05273-0.59424,2.05273-2.17871v-1.24219c-0.52246,0.88232-1.36914,1.42236-2.2334,1.42236
			c-1.94434,0-3.16895-1.6748-3.16895-4.46533c0-2.75488,1.20703-4.46533,3.16895-4.46533c0.84668,0,1.69238,0.4502,2.2334,1.38623
			v-1.17041h1.78223v8.39062c0,3.00684-1.87305,3.83496-3.74512,3.83496c-1.24219,0-2.21484-0.28809-3.0791-1.09814
			L765.18652,361.25244z M769.49023,354.06836c-0.30664-0.64844-1.00879-1.18848-1.69336-1.18848
			c-1.24219,0-1.85449,1.20654-1.85449,2.88086c0,1.65625,0.6123,2.86279,1.85449,2.86279
			c0.68457,0,1.38672-0.54004,1.69336-1.18848V354.06836z"/>
		<path class="st13" d="M774.51074,357.9751c0.66602,0,1.20605,0.55859,1.20605,1.20654c0,0.6665-0.54004,1.22461-1.20605,1.22461
			c-0.64844,0-1.20605-0.55811-1.20605-1.22461C773.30469,358.53369,773.8623,357.9751,774.51074,357.9751z"/>
		<path class="st13" d="M782.55762,354.28418c0-1.02637-0.46875-1.4043-1.24316-1.4043c-0.77344,0-1.44043,0.59424-1.76367,1.20654
			v6.12158H777.75v-8.69678h1.80078v1.17041c0.46777-0.70215,1.44043-1.38623,2.52051-1.38623
			c1.56641,0,2.28613,0.86426,2.28613,2.3584v6.5542h-1.7998V354.28418z"/>
		<path class="st13" d="M789.77441,351.29541c2.3584,0,3.61914,1.99854,3.61914,4.62744v0.52197h-5.52832
			c0.07227,1.42236,0.86523,2.50293,2.26953,2.50293c0.68359,0,1.45801-0.34229,1.96191-0.93652l0.86426,1.08057
			c-0.73828,0.84619-1.83594,1.33252-3.00684,1.33252c-2.39453,0-3.90723-1.87305-3.90723-4.57373
			C786.04688,353.33008,787.45117,351.29541,789.77441,351.29541z M787.84766,355.1665h3.79883
			c-0.01758-1.08008-0.50391-2.4126-1.89062-2.4126C788.40625,352.75391,787.90137,354.12207,787.84766,355.1665z"/>
		<path class="st13" d="M795.33594,358.26318v-5.18555h-1.13477v-1.56641h1.13477v-2.37646h1.7998v2.37646h1.44043v1.56641h-1.44043
			v4.80762c0,0.59424,0.19824,0.9541,0.66699,0.9541c0.28809,0,0.55762-0.12598,0.68359-0.28809l0.43262,1.35059
			c-0.32422,0.32422-0.82812,0.52246-1.56641,0.52246C795.9834,360.42432,795.33594,359.68604,795.33594,358.26318z"/>
	</g>
	<g>
		<g>
			<g>
				<line class="st23" x1="853.99609" y1="148.73265" x2="797.07751" y2="148.73254"/>
			</g>
		</g>
		<g>
			<line class="st23" x1="853.99609" y1="148.73262" x2="849.11786" y2="153.6109"/>
			<line class="st23" x1="853.99609" y1="148.73262" x2="849.11786" y2="143.8544"/>
		</g>
		<g>
			<g>
				<line class="st23" x1="543.8045" y1="148.73253" x2="617.19702" y2="148.73273"/>
			</g>
		</g>
		<g>
			<g>
				<line class="st23" x1="473.72" y1="242.25043" x2="503.72" y2="242.2506"/>
			</g>
		</g>
		<path class="st23" d="M543.72003,148.73253c-11.04572,0-20,8.95427-20,20"/>
		<path class="st23" d="M503.72,242.2506c11.04568,0,20.00003-8.9543,20.00003-20"/>
		<line class="st23" x1="523.72003" y1="168.73253" x2="523.72003" y2="222.2506"/>
	</g>
	<g>
		<line class="st23" x1="853.99615" y1="355.79657" x2="849.11786" y2="360.67487"/>
		<line class="st23" x1="853.99615" y1="355.79657" x2="849.11792" y2="350.91833"/>
	</g>
	<g>
		<g>
			<line class="st23" x1="853.99609" y1="355.7966" x2="804.07751" y2="355.79651"/>
		</g>
	</g>
	<g>
		<g>
			<g>
				<line class="st23" x1="543.8045" y1="355.79645" x2="610.63947" y2="355.79666"/>
			</g>
		</g>
		<g>
			<g>
				<line class="st23" x1="473.72" y1="262.25079" x2="503.72" y2="262.25061"/>
			</g>
		</g>
		<path class="st23" d="M543.72003,355.76871c-11.04572,0-20-8.95432-20-20"/>
		<path class="st23" d="M503.72,262.25061c11.04568,0,20.00003,8.95428,20.00003,20"/>
		<line class="st23" x1="523.72003" y1="335.76871" x2="523.72003" y2="282.25061"/>
	</g>
	<g>
		<g>
			<g>
				<line class="st4" x1="245.4026" y1="148.70468" x2="165" y2="148.70447"/>
			</g>
		</g>
		<path class="st4" d="M245.4026,148.73241c11.0457,0,19.99998,8.9543,19.99998,20"/>
		<line class="st4" x1="265.40259" y1="168.73241" x2="265.40259" y2="222.25052"/>
		<g>
			<g>
				<line class="st4" x1="365.80527" y1="242.25038" x2="285.40262" y2="242.25058"/>
			</g>
		</g>
		<path class="st4" d="M285.40262,242.25055c-11.04572,0-20.00003-8.9543-20.00003-20"/>
	</g>
	<g>
		<g>
			<g>
				<line class="st4" x1="245.40257" y1="355.79645" x2="142.46066" y2="355.79666"/>
			</g>
		</g>
		<path class="st4" d="M245.40257,355.76874c11.0457,0,19.99998-8.95432,19.99998-20"/>
		<line class="st4" x1="265.40256" y1="335.76874" x2="265.40256" y2="282.25064"/>
		<g>
			<g>
				<line class="st4" x1="365.80524" y1="262.25076" x2="285.40259" y2="262.25055"/>
			</g>
		</g>
		<path class="st4" d="M285.40259,262.25058c-11.04572,0-20.00003,8.95428-20.00003,20"/>
	</g>
	<g>
		<rect x="54.57135" y="405.79669" class="st12" width="75.8573" height="35.48502"/>
		<path class="st13" d="M76.03125,405.79346h2.2207v8.88184c0,1.78027,0.87988,2.74023,2.42041,2.74023
			c1.54004,0,2.42041-0.95996,2.42041-2.74023v-8.88184h2.2207v8.86133c0,3.02148-1.76074,4.72168-4.64111,4.72168
			c-2.88086,0-4.64111-1.7002-4.64111-4.72168V405.79346z"/>
		<path class="st13" d="M87.91113,416.59521c0.58008,0.64062,1.6001,1.20117,2.60059,1.20117c1,0,1.6001-0.46094,1.6001-1.20117
			c0-0.7998-0.83984-1.16016-1.82031-1.51953c-1.36035-0.48047-2.96045-1.06055-2.96045-3.08105
			c0-1.5,1.2002-2.76074,3.3208-2.76074c1.34033,0,2.42041,0.5,3.18066,1.24023l-0.84033,1.36035
			c-0.47998-0.58008-1.34033-1.01953-2.30029-1.01953c-0.90039,0-1.48047,0.43945-1.48047,1.05957
			c0,0.7207,0.80029,1.06055,1.76025,1.40039c1.38037,0.5,3.04053,1.10059,3.04053,3.2207
			c0,1.66016-1.34033,2.88086-3.46045,2.88086c-1.48047,0-2.7207-0.5-3.54102-1.38086L87.91113,416.59521z"/>
		<path class="st13" d="M99.45117,409.23389c2.62061,0,4.021,2.2207,4.021,5.1416v0.58008h-6.14111
			c0.08008,1.58008,0.95996,2.78027,2.52051,2.78027c0.76025,0,1.62012-0.37988,2.18018-1.04004l0.96045,1.2002
			c-0.82031,0.94043-2.04053,1.48047-3.34082,1.48047c-2.66064,0-4.34082-2.08105-4.34082-5.08105
			C95.31055,411.49463,96.87061,409.23389,99.45117,409.23389z M97.31104,413.53467h4.2207
			c-0.02002-1.2002-0.56006-2.68066-2.10059-2.68066C97.93115,410.854,97.37109,412.37451,97.31104,413.53467z"/>
		<path class="st13" d="M105.27051,409.47412h2.00049v1.41992c0.56006-0.93945,1.58057-1.63965,2.66064-1.63965v1.98047
			c-0.16016-0.04004-0.34033-0.06055-0.52002-0.06055c-0.82031,0-1.74072,0.62012-2.14062,1.34082v6.62109h-2.00049V409.47412z"/>
	</g>
	<g>
		<rect x="54.57135" y="188.7045" class="st12" width="75.8573" height="35.48502"/>
		<path class="st13" d="M81.32129,188.70117h2.2207v13.34277h-2.2207V188.70117z"/>
		<path class="st13" d="M91.52246,200.76367c-0.58057,0.95996-1.52051,1.52051-2.48096,1.52051
			c-2.16016,0-3.52051-1.96094-3.52051-5.06152c0-3.06055,1.34033-5.08105,3.52051-5.08105c0.94043,0,1.90039,0.5,2.48096,1.54102
			v-4.98145h2v13.34277h-2V200.76367z M91.52246,195.22266c-0.34033-0.7207-1.12061-1.32031-1.88086-1.32031
			c-1.37988,0-2.06006,1.44043-2.06006,3.32031c0,1.84082,0.68018,3.30078,2.06006,3.30078
			c0.76025,0,1.54053-0.59961,1.88086-1.32031V195.22266z"/>
		<path class="st13" d="M95.98096,188.70117h4.54102c2.62061,0,3.94092,1.91992,3.94092,4.14062
			c0,2.24023-1.32031,4.16113-3.94092,4.16113h-2.32031v5.04102h-2.2207V188.70117z M100.26172,190.6416h-2.06006v4.40039h2.06006
			c1.18018,0,1.94043-0.87988,1.94043-2.2002S101.44189,190.6416,100.26172,190.6416z"/>
	</g>
	<g>
		<line class="st4" x1="165.00002" y1="148.70445" x2="169.8783" y2="153.58273"/>
		<line class="st4" x1="165" y1="148.70445" x2="169.87823" y2="143.82622"/>
	</g>
	<g>
		<circle class="st8" cx="92.5" cy="355.79669" r="40"/>
		<g>
			<path class="st24" d="M84.4482,365.16687c-1.10877,0.50537-3.04673,1.12552-6.43139,2.09802
				c-7.74012,2.224-9.34918,8.85852-9.34918,8.85852h47.66476c0,0-1.52318-6.95959-9.34926-8.85852
				c-3.44168-0.83508-5.37428-1.4816-6.45629-2.06378"/>
			<polyline class="st24" points="84.4397,365.17075 92.51254,376.12341 100.52688,365.20114 			"/>
			<g>
				<path class="st24" d="M106.43594,363.95557h-9.15157c3.80947-2.32632,6.0516-7.18439,6.627-12.93842
					c0.31557-3.15573-0.31557-6.9426-0.31557-6.9426s-0.9357-9.15155-6.94257-9.15155c-5.98099,0-8.30679,4.89261-16.34082,5.59406
					l-1.96233,0.08621c0.69233,0,1.34233-0.03207,1.96233-0.08621l1.44878-0.06363
					c-0.37572,1.42801-0.52311,5.06787-0.52311,5.06787v1.61063c0,5.78278,2.4541,14.49731,6.26357,16.82364h-9.15157
					c0,0-2.52457,0.31558-2.52457-3.78687v-3.78683c-0.63114-29.97931,16.72529-28.71701,16.72529-28.71701
					c20.51215-0.31558,17.35643,31.24158,17.35643,31.24158S110.22279,363.64001,106.43594,363.95557z"/>
				<path class="st25" d="M80.3124,340.51706l-1.96233,0.08621C79.0424,340.60327,79.69241,340.5712,80.3124,340.51706z"/>
			</g>
		</g>
	</g>
	<g>
		<rect x="610.66064" y="90" class="st12" width="192.46851" height="19.945"/>
		<path class="st13" d="M636.59961,98.11523l-0.94043,1.48047v3.74072h-2.68066V89.99365h2.68066v6.06104l3.76074-6.06104h3.12109
			l-4.26074,6.28125l4.56055,7.06152h-3.16016L636.59961,98.11523z"/>
		<path class="st13" d="M649.02051,102.11621c-0.52051,0.76025-1.58105,1.46045-2.84082,1.46045
			c-1.78027,0-2.58105-0.98047-2.58105-2.60059v-7.30176H646v6.38135c0,1.02051,0.47949,1.40039,1.28027,1.40039
			c0.7793,0,1.39941-0.58008,1.74023-1.18018v-6.60156h2.40039v9.66211h-2.40039V102.11621z"/>
		<path class="st13" d="M653.5791,89.99365h2.40039v4.90088c0.58008-1,1.52051-1.46045,2.44043-1.46045
			c2.18066,0,3.58105,1.98047,3.58105,5.08154c0,3.16064-1.4209,5.06104-3.58105,5.06104
			c-0.91992,0-1.83984-0.50049-2.44043-1.46045v1.22021h-2.40039V89.99365z M657.66016,101.45605
			c1.21973,0,1.86035-1.26025,1.86035-2.94043c0-1.70068-0.64062-2.96094-1.86035-2.96094
			c-0.66016,0-1.36035,0.52002-1.68066,1.16016v3.60107C656.2998,100.95605,657,101.45605,657.66016,101.45605z"/>
		<path class="st13" d="M667.47949,93.43408c2.66113,0,4.16113,2.16064,4.16113,5.16113v0.68018h-6.06152
			c0.10059,1.32031,0.88086,2.36084,2.34082,2.36084c0.74023,0,1.56055-0.34033,2.10059-0.94043l1.10059,1.44043
			c-0.86035,0.93994-2.16113,1.44043-3.46094,1.44043c-2.7207,0-4.50098-2.04053-4.50098-5.08105
			C663.15918,95.69482,664.7998,93.43408,667.47949,93.43408z M665.5791,97.63525h3.74121
			c-0.04004-1.00049-0.48047-2.26074-1.88086-2.26074C666.09961,95.37451,665.61914,96.63477,665.5791,97.63525z"/>
		<path class="st13" d="M673.23828,93.67432h2.40137v1.34033c0.54004-0.88037,1.59961-1.56055,2.64062-1.56055v2.34082
			c-0.16016-0.04004-0.36035-0.06006-0.58008-0.06006c-0.76074,0-1.66113,0.52002-2.06055,1.16016v6.44141h-2.40137V93.67432z"/>
		<path class="st13" d="M685.05957,96.9751c0-1.02002-0.45996-1.42041-1.25977-1.42041s-1.41992,0.62012-1.76074,1.2002v6.58154
			h-2.40039v-9.66211h2.40039v1.26025c0.52051-0.76025,1.60059-1.50049,2.84082-1.50049c1.78027,0,2.58105,1.04053,2.58105,2.64062
			v7.26172h-2.40137V96.9751z"/>
		<path class="st13" d="M693.45996,93.43408c2.66016,0,4.16016,2.16064,4.16016,5.16113v0.68018h-6.06055
			c0.09961,1.32031,0.87988,2.36084,2.33984,2.36084c0.74023,0,1.56055-0.34033,2.10059-0.94043l1.10059,1.44043
			c-0.86035,0.93994-2.16016,1.44043-3.46094,1.44043c-2.7207,0-4.50098-2.04053-4.50098-5.08105
			C689.13867,95.69482,690.7793,93.43408,693.45996,93.43408z M691.55957,97.63525h3.74023
			c-0.04004-1.00049-0.47949-2.26074-1.87988-2.26074C692.0791,95.37451,691.59961,96.63477,691.55957,97.63525z"/>
		<path class="st13" d="M699.63867,101.01611V95.7749h-1.25977v-2.10059h1.25977v-2.64062h2.40039v2.64062h1.60059v2.10059h-1.60059
			v4.68066c0,0.62061,0.24023,1.00049,0.7002,1.00049c0.30078,0,0.60059-0.12012,0.7207-0.28027l0.5,1.84033
			c-0.36035,0.32031-0.98047,0.56055-1.86035,0.56055C700.41895,103.57666,699.63867,102.71631,699.63867,101.01611z"/>
		<path class="st13" d="M709,93.43408c2.66016,0,4.16016,2.16064,4.16016,5.16113v0.68018h-6.06055
			c0.09961,1.32031,0.87988,2.36084,2.33984,2.36084c0.74023,0,1.56055-0.34033,2.10059-0.94043l1.10059,1.44043
			c-0.86035,0.93994-2.16016,1.44043-3.46094,1.44043c-2.7207,0-4.50098-2.04053-4.50098-5.08105
			C704.67871,95.69482,706.31934,93.43408,709,93.43408z M707.09961,97.63525h3.74023
			c-0.04004-1.00049-0.47949-2.26074-1.87988-2.26074C707.61914,95.37451,707.13965,96.63477,707.09961,97.63525z"/>
		<path class="st13" d="M715.03906,100.51562c0.59961,0.64014,1.68066,1.18066,2.66016,1.18066
			c0.9209,0,1.4209-0.38037,1.4209-1.00049c0-0.66016-0.74023-0.93994-1.66016-1.24023
			c-1.36035-0.43994-3.12109-0.95996-3.12109-3.12061c0-1.56055,1.25977-2.90088,3.52051-2.90088
			c1.38086,0,2.52051,0.50049,3.36133,1.24072l-0.96094,1.62012c-0.47949-0.54004-1.37988-1-2.36035-1
			c-0.75977,0-1.28027,0.35986-1.28027,0.8999c0,0.58008,0.66016,0.86035,1.56055,1.14014
			c1.40039,0.44043,3.24023,1.02051,3.24023,3.24072c0,1.74072-1.41992,3.00098-3.68066,3.00098
			c-1.55957,0-2.90039-0.52051-3.7207-1.38037L715.03906,100.51562z"/>
		<path class="st13" d="M726.75879,96.6748c0-4.04053,2.18066-6.90137,5.60156-6.90137c2.60059,0,3.82129,1.66064,4.50098,3.20068
			l-2.2207,0.98047c-0.39941-1.06055-1.17969-1.80078-2.28027-1.80078c-1.75977,0-2.84082,1.90039-2.84082,4.521
			s1.08105,4.521,2.84082,4.521c1.14062,0,1.9209-0.83984,2.30078-1.94043l2.2207,0.96045
			c-0.66016,1.6001-1.88086,3.36084-4.52148,3.36084C728.93945,103.57666,726.75879,100.71582,726.75879,96.6748z"/>
		<path class="st13" d="M738.35938,89.99365h2.40039v13.34277h-2.40039V89.99365z"/>
		<path class="st13" d="M748.33984,102.11621c-0.51953,0.76025-1.58008,1.46045-2.83984,1.46045
			c-1.78027,0-2.58105-0.98047-2.58105-2.60059v-7.30176h2.40039v6.38135c0,1.02051,0.48047,1.40039,1.28027,1.40039
			c0.78027,0,1.40039-0.58008,1.74023-1.18018v-6.60156h2.40137v9.66211h-2.40137V102.11621z"/>
		<path class="st13" d="M753.17871,100.51562c0.59961,0.64014,1.68066,1.18066,2.66016,1.18066
			c0.9209,0,1.4209-0.38037,1.4209-1.00049c0-0.66016-0.74023-0.93994-1.66016-1.24023
			c-1.36035-0.43994-3.12109-0.95996-3.12109-3.12061c0-1.56055,1.26074-2.90088,3.52051-2.90088
			c1.38086,0,2.52051,0.50049,3.36133,1.24072l-0.96094,1.62012c-0.47949-0.54004-1.37988-1-2.36035-1
			c-0.75977,0-1.28027,0.35986-1.28027,0.8999c0,0.58008,0.66016,0.86035,1.56055,1.14014
			c1.40039,0.44043,3.24023,1.02051,3.24023,3.24072c0,1.74072-1.41992,3.00098-3.68066,3.00098
			c-1.55957,0-2.90039-0.52051-3.7207-1.38037L753.17871,100.51562z"/>
		<path class="st13" d="M761.55762,101.01611V95.7749h-1.25977v-2.10059h1.25977v-2.64062h2.40039v2.64062h1.60059v2.10059h-1.60059
			v4.68066c0,0.62061,0.24023,1.00049,0.7002,1.00049c0.30078,0,0.60059-0.12012,0.7207-0.28027l0.5,1.84033
			c-0.36035,0.32031-0.98047,0.56055-1.86035,0.56055C762.33789,103.57666,761.55762,102.71631,761.55762,101.01611z"/>
		<path class="st13" d="M770.91895,93.43408c2.66016,0,4.16016,2.16064,4.16016,5.16113v0.68018h-6.06055
			c0.09961,1.32031,0.87988,2.36084,2.33984,2.36084c0.74023,0,1.56055-0.34033,2.10059-0.94043l1.10059,1.44043
			c-0.86035,0.93994-2.16016,1.44043-3.46094,1.44043c-2.7207,0-4.50098-2.04053-4.50098-5.08105
			C766.59766,95.69482,768.23828,93.43408,770.91895,93.43408z M769.01855,97.63525h3.74023
			c-0.04004-1.00049-0.47949-2.26074-1.87988-2.26074C769.53809,95.37451,769.05859,96.63477,769.01855,97.63525z"/>
		<path class="st13" d="M776.67773,93.67432h2.40039v1.34033c0.54004-0.88037,1.60059-1.56055,2.64062-1.56055v2.34082
			c-0.16016-0.04004-0.36035-0.06006-0.58008-0.06006c-0.75977,0-1.66016,0.52002-2.06055,1.16016v6.44141h-2.40039V93.67432z"/>
	</g>
</g>
</svg>
